<svg version="1.2" xmlns="http://www.w3.org/2000/svg" viewBox="0 0 1500 1000" width="1500" height="1000"><defs><linearGradient id="P" gradientUnits="userSpaceOnUse"/><linearGradient id="g1" x2="1" href="#P" gradientTransform="matrix(1,0,0,.023,103.849,922.244)"><stop stop-color="#fff"/><stop offset="1" stop-color="#fff"/></linearGradient><clipPath clipPathUnits="userSpaceOnUse" id="cp1"><path d="m114.22 893.62h1271.5v-786h-1271.5z"/></clipPath><linearGradient id="g2" x2="1" href="#P" gradientTransform="matrix(737.964,-494.975,450.984,672.377,215.308,303.289)"><stop stop-color="#4a057a"/><stop offset="1" stop-color="#181743"/></linearGradient><linearGradient id="g3" x2="1" href="#P" gradientTransform="matrix(-4.804,-153.105,89.724,-2.815,522.675,626.304)"><stop offset=".01" stop-color="#fea7af"/><stop offset="1" stop-color="#f84fba"/></linearGradient><linearGradient id="g4" x2="1" href="#P" gradientTransform="matrix(-7.064,-225.152,171.722,-5.388,452.451,664.525)"><stop stop-color="#f84fba"/><stop offset=".99" stop-color="#fea7af"/></linearGradient><clipPath clipPathUnits="userSpaceOnUse" id="cp2"><path d="m786.13 605.54c0 0-38.69-15-60.23-49.75-21.54-34.74-17.77-76.06-17.77-76.06 0 0 38.68 15 60.23 49.74 21.54 34.75 17.77 76.07 17.77 76.07z"/></clipPath><linearGradient id="g5" x2="1" href="#P" gradientTransform="matrix(-91.336,-122.968,72.061,-53.524,607.14,791.934)"><stop stop-color="#4a057a"/><stop offset="1" stop-color="#f980a9"/></linearGradient><linearGradient id="g6" x2="1" href="#P" gradientTransform="matrix(-134.316,-180.834,137.921,-102.442,571.283,863.411)"><stop stop-color="#4a057a"/><stop offset="1" stop-color="#f980a9"/></linearGradient><clipPath clipPathUnits="userSpaceOnUse" id="cp3"><path d="m811.6 624.51c0 0-40.33 9.77-77.85-6.46-37.52-16.24-58.01-52.32-58.01-52.32 0 0 40.33-9.76 77.85 6.47 37.52 16.23 58.01 52.31 58.01 52.31z"/></clipPath><linearGradient id="g7" x2="1" href="#P" gradientTransform="matrix(-148.043,39.332,-23.048,-86.752,1415.99,871.264)"><stop stop-color="#4a057a"/><stop offset="1" stop-color="#f980a9"/></linearGradient><linearGradient id="g8" x2="1" href="#P" gradientTransform="matrix(-217.71,57.84,-44.113,-166.042,1469.113,931.009)"><stop stop-color="#4a057a"/><stop offset="1" stop-color="#f980a9"/></linearGradient><clipPath clipPathUnits="userSpaceOnUse" id="cp4"><path d="m1336.14 619.35c0 0-5.86 41.08-34.83 69.93-28.96 28.84-70.07 34.52-70.07 34.52 0 0 5.86-41.08 34.83-69.92 28.97-28.85 70.07-34.53 70.07-34.53z"/></clipPath><linearGradient id="g9" x2="1" href="#P" gradientTransform="matrix(237.262,0,0,297.6,1051.066,297.17)"><stop offset=".01" stop-color="#fea7af"/><stop offset="1" stop-color="#f84fba"/></linearGradient><linearGradient id="g10" x2="1" href="#P" gradientTransform="matrix(-124,296,-268.029,-112.282,1403.358,429.987)"><stop stop-color="#4a057a"/><stop offset="1" stop-color="#f980a9"/></linearGradient><linearGradient id="g11" x2="1" href="#P" gradientTransform="matrix(398.934,0,0,272,775.421,459.121)"><stop offset=".01" stop-color="#fea7af"/><stop offset="1" stop-color="#f84fba"/></linearGradient><clipPath clipPathUnits="userSpaceOnUse" id="cp5"><path d="m1164.79 704.6c0 9.94-8.05 18-18 18h-362.93c-9.94 0-18-8.06-18-18v-236c0-9.94 8.06-18 18-18h362.93c9.95 0 18 8.06 18 18z"/></clipPath><linearGradient id="g12" x2="1" href="#P" gradientTransform="matrix(0,-43.433,514,0,975.588,489.402)"><stop offset=".01" stop-color="#fea7af"/><stop offset="1" stop-color="#f84fba"/></linearGradient><linearGradient id="g13" x2="1" href="#P" gradientTransform="matrix(156.434,0,0,156.434,1127.257,620.609)"><stop stop-color="#f84fba"/><stop offset=".99" stop-color="#fea7af"/></linearGradient><linearGradient id="g14" x2="1" href="#P" gradientTransform="matrix(156.434,0,0,156.434,1123.021,618.49)"><stop stop-color="#4a057a"/><stop offset="1" stop-color="#f980a9"/></linearGradient><clipPath clipPathUnits="userSpaceOnUse" id="cp6"><path d="m1266.89 696.71c0 36.26-29.39 65.65-65.65 65.65-36.26 0-65.66-29.39-65.66-65.65 0-36.26 29.4-65.66 65.66-65.66 36.26 0 65.65 29.4 65.65 65.66z"/></clipPath><linearGradient id="g15" x2="1" href="#P" gradientTransform="matrix(161.725,0,0,144.279,1105.167,555.801)"><stop offset=".01" stop-color="#fea7af"/><stop offset="1" stop-color="#f84fba"/></linearGradient><linearGradient id="g16" x2="1" href="#P" gradientTransform="matrix(116.611,0,0,112.543,1135.581,631.053)"><stop stop-color="#4a057a"/><stop offset="1" stop-color="#f980a9"/></linearGradient><linearGradient id="g17" x2="1" href="#P" gradientTransform="matrix(32.777,0,0,38.81,1201.237,662.113)"><stop stop-color="#4a057a"/><stop offset="1" stop-color="#f980a9"/></linearGradient><linearGradient id="g18" x2="1" href="#P" gradientTransform="matrix(48.705,0,0,3.443,1151.148,698.695)"><stop stop-color="#f980a9"/><stop offset="1" stop-color="#4a057a"/></linearGradient><linearGradient id="g19" x2="1" href="#P" gradientTransform="matrix(10.725,0,0,10.727,1195.876,693.332)"><stop stop-color="#4a057a"/><stop offset="1" stop-color="#f980a9"/></linearGradient><linearGradient id="g20" x2="1" href="#P" gradientTransform="matrix(0,-93.137,62.102,0,928.109,416.227)"><stop stop-color="#ffffb3"/><stop offset="1" stop-color="#ffc931"/></linearGradient><linearGradient id="g21" x2="1" href="#P" gradientTransform="matrix(544.045,0,0,370.374,1113.554,646.622)"><stop offset=".01" stop-color="#fea7af"/><stop offset="1" stop-color="#f84fba"/></linearGradient><linearGradient id="g22" x2="1" href="#P" gradientTransform="matrix(265.239,260.038,-259.129,264.312,321.547,-15.735)"><stop offset=".01" stop-color="#fea7af"/><stop offset="1" stop-color="#f84fba"/></linearGradient><linearGradient id="g23" x2="1" href="#P" gradientTransform="matrix(89.671,0,0,59.865,985.736,806.448)"><stop offset=".01" stop-color="#fea7af"/><stop offset="1" stop-color="#f84fba"/></linearGradient><linearGradient id="g24" x2="1" href="#P" gradientTransform="matrix(-89.671,0,0,-59.865,541.276,139.155)"><stop offset=".01" stop-color="#fea7af"/><stop offset="1" stop-color="#f84fba"/></linearGradient></defs><style>.a{fill:#fff}.b{opacity:.4;mix-blend-mode:multiply;fill:url(#g1)}.c{fill:url(#g2)}.d{fill:url(#g3)}.e{fill:url(#g4)}.f{fill:url(#g5)}.g{fill:url(#g6)}.h{fill:url(#g7)}.i{fill:url(#g8)}.j{fill:url(#g9)}.k{fill:url(#g10)}.l{fill:url(#g11)}.m{fill:url(#g12)}.n{opacity:.2;fill:#f78ab5}.o{opacity:.4;fill:#e33e84;stroke:#e33e84;stroke-miterlimit:10;stroke-width:2}.p{fill:#e33e84}.q{fill:#ffc931}.r{fill:url(#g13)}.s{fill:url(#g14)}.t{fill:url(#g15)}.u{fill:#21144d}.v{opacity:.3;mix-blend-mode:multiply;fill:url(#g16)}.w{fill:url(#g17)}.x{fill:url(#g18)}.y{fill:url(#g19)}.z{fill:url(#g20)}.A{fill:#f9b761}.B{fill:none;stroke:#fefefe;stroke-linecap:round;stroke-linejoin:round;stroke-width:2}.C{fill:url(#g21)}.D{fill:url(#g22)}.E{fill:url(#g23)}.F{fill:url(#g24)}.G{fill:#ff52b8}.H{fill:#ff94d9}</style><g style="display:none"><path class="a" d="m1500 1000h-1500v-1000h1500z"/><path class="b" d="m103.8 922.2c215.3 0 430.6-20.4 645.9-20.4 0-4.7 0-2.8 0-7.5-215.3 0-430.6 13.9-645.9 13.9q0 7 0 14zm0-14c215.3 0 430.6-13.9 645.9-13.9 0-5.4 0 3.1 0-2.3q-322.9 0-645.9 0 0 8.1 0 16.2zm645.9-6.4c215.5 0 431 20.4 646.4 20.4q0-7 0-14c-215.4 0-430.9-13.9-646.4-13.9 0 4.7 0 2.8 0 7.5zm0-7.5c215.5 0 431 13.9 646.4 13.9q0-8.1 0-16.2-323.2 0-646.4 0c0 5.4 0-3.1 0 2.3z"/></g><g clip-path="url(#cp1)"><path class="c" d="m114.2 893.6h1271.5v-786h-1271.5z"/><path class="d" d="m786.1 605.5c0 0-38.7-15-60.2-49.7-21.5-34.7-17.8-76.1-17.8-76.1 0 0 38.7 15 60.3 49.8 21.5 34.7 17.7 76 17.7 76z"/><path class="e" d="m815.6 653.1l61.5-38.1-115.1-185.6-61.4 38.1z"/><g clip-path="url(#cp2)"></g><path class="f" d="m811.6 624.5c0 0-40.3 9.8-77.9-6.5-37.5-16.2-58-52.3-58-52.3 0 0 40.4-9.7 77.9 6.5 37.5 16.2 58 52.3 58 52.3z"/><path class="g" d="m863 646.7l28.7-66.3-200.4-86.7-28.7 66.3z"/><g clip-path="url(#cp3)"></g><path class="h" d="m1336.1 619.4c0 0-5.8 41-34.8 69.9-29 28.8-70.1 34.5-70.1 34.5 0 0 5.9-41.1 34.9-69.9 28.9-28.9 70-34.5 70-34.5z"/><path class="i" d="m1375.8 579.8l-51-51.2-154.7 154.1 51 51.2z"/><g clip-path="url(#cp4)"></g><path class="j" d="m1288.3 594.8h-237.2v-297.6h237.2z"/><path class="k" d="m1274.7 579.9h-210v-267.9h210z"/><g style="opacity:.3"><path class="a" d="m1143.1 338.6h-64.4v-12.3h64.4z"/></g><g style="opacity:.3"><path class="a" d="m1196.9 357.2h-118.2v-5.6h118.2z"/></g><g style="opacity:.3"><path class="a" d="m1196.9 370.8h-118.2v-5.6h118.2z"/></g><g style="opacity:.4"><path class="a" d="m1254.5 371.4h-26v-25.9h26z"/></g><path class="a" d="m1241.7 368.8l-9.4-8 2.4-2.8 6.6 5.5 17.9-22 2.9 2.4z"/><g style="opacity:.3"><path class="a" d="m1143.1 403.1h-64.4v-12.4h64.4z"/></g><g style="opacity:.3"><path class="a" d="m1196.9 421.7h-118.2v-5.6h118.2z"/></g><g style="opacity:.3"><path class="a" d="m1196.9 435.3h-118.2v-5.6h118.2z"/></g><g style="opacity:.4"><path class="a" d="m1254.5 435.9h-26v-26h26z"/></g><path class="a" d="m1241.7 433.3l-9.4-8 2.4-2.9 6.6 5.6 17.9-22 2.9 2.3z"/><g style="opacity:.3"><path class="a" d="m1143.1 467.5h-64.4v-12.4h64.4z"/></g><g style="opacity:.3"><path class="a" d="m1196.9 486.1h-118.2v-5.6h118.2z"/></g><g style="opacity:.3"><path class="a" d="m1196.9 499.7h-118.2v-5.6h118.2z"/></g><g style="opacity:.4"><path class="a" d="m1254.5 500.3h-26v-26h26z"/></g><path class="a" d="m1241.7 497.7l-9.4-8 2.4-2.9 6.6 5.6 17.9-22 2.9 2.3z"/><g style="opacity:.3"><path class="a" d="m1143.1 532.8h-64.4v-12.3h64.4z"/></g><g style="opacity:.3"><path class="a" d="m1196.9 551.4h-118.2v-5.6h118.2z"/></g><g style="opacity:.3"><path class="a" d="m1196.9 565h-118.2v-5.6h118.2z"/></g><g style="opacity:.4"><path class="a" d="m1254.5 565.6h-26v-26h26z"/></g><path class="a" d="m1241.7 563l-9.4-8 2.4-2.8 6.6 5.5 17.9-22 2.9 2.3z"/><path class="l" d="m1174.4 713.1c0 10-8.1 18-18 18h-363c-9.9 0-18-8-18-18v-236c0-9.9 8.1-18 18-18h363c9.9 0 18 8.1 18 18z"/><path class="a" d="m1164.8 704.6c0 9.9-8.1 18-18 18h-362.9c-10 0-18-8.1-18-18v-236c0-9.9 8-18 18-18h362.9c9.9 0 18 8.1 18 18z"/><g clip-path="url(#cp5)"><path class="m" d="m1234.4 489.4h-514v-43.4h514z"/></g><path class="n" d="m831.2 557h-47.1v-42.2h47.1z"/><path class="n" d="m831.2 606h-47.1v-42.3h47.1z"/><path class="n" d="m831.2 655h-47.1v-42.3h47.1z"/><path class="o" d="m831.2 704h-47.1v-42.3h47.1z"/><path class="n" d="m883.7 557h-47.1v-42.2h47.1z"/><path class="n" d="m883.7 606h-47.1v-42.3h47.1z"/><path class="n" d="m883.7 655h-47.1v-42.3h47.1z"/><path class="o" d="m883.7 704h-47.1v-42.3h47.1z"/><path class="n" d="m936.3 557h-47.1v-42.2h47.1z"/><path class="n" d="m936.3 606h-47.1v-42.3h47.1z"/><path class="n" d="m936.3 655h-47.1v-42.3h47.1z"/><path class="n" d="m936.3 704h-47.1v-42.3h47.1z"/><path class="o" d="m988.9 557h-47.1v-42.2h47.1z"/><path class="n" d="m988.9 606h-47.1v-42.3h47.1z"/><path class="n" d="m988.9 655h-47.1v-42.3h47.1z"/><path class="n" d="m988.9 704h-47.1v-42.3h47.1z"/><path class="n" d="m1041.4 557h-47v-42.2h47z"/><path class="n" d="m1041.4 606h-47v-42.3h47z"/><path class="n" d="m1041.4 655h-47v-42.3h47z"/><path class="n" d="m1041.4 704h-47v-42.3h47z"/><path class="n" d="m1094 557h-47.1v-42.2h47.1z"/><path class="n" d="m1094 606h-47.1v-42.3h47.1z"/><path class="n" d="m1094 655h-47.1v-42.3h47.1z"/><path class="n" d="m1094 704h-47.1v-42.3h47.1z"/><path class="n" d="m1146.6 557h-47.1v-42.2h47.1z"/><path class="n" d="m1146.6 606h-47.1v-42.3h47.1z"/><path class="n" d="m1146.6 655h-47.1v-42.3h47.1z"/><path class="n" d="m1146.6 704h-47.1v-42.3h47.1z"/><path class="a" d="m800.8 462.9c0 1.8 1.5 3.4 3.4 3.4 1.9 0 3.4-1.6 3.4-3.4v-24.6c0-1.8-1.5-3.4-3.4-3.4-1.9 0-3.4 1.6-3.4 3.4z"/><path class="a" d="m814.5 462.9c0 1.8 1.5 3.4 3.4 3.4 1.9 0 3.4-1.6 3.4-3.4v-24.6c0-1.8-1.5-3.4-3.4-3.4-1.9 0-3.4 1.6-3.4 3.4z"/><path class="a" d="m877.9 462.9c0 1.8 1.5 3.4 3.4 3.4 1.9 0 3.4-1.6 3.4-3.4v-24.6c0-1.8-1.5-3.4-3.4-3.4-1.9 0-3.4 1.6-3.4 3.4z"/><path class="a" d="m891.6 462.9c0 1.8 1.6 3.4 3.4 3.4 1.9 0 3.4-1.6 3.4-3.4v-24.6c0-1.8-1.5-3.4-3.4-3.4-1.8 0-3.4 1.6-3.4 3.4z"/><path class="a" d="m955.1 462.9c0 1.8 1.5 3.4 3.4 3.4 1.8 0 3.4-1.6 3.4-3.4v-24.6c0-1.8-1.6-3.4-3.4-3.4-1.9 0-3.4 1.6-3.4 3.4z"/><path class="a" d="m968.8 462.9c0 1.8 1.5 3.4 3.4 3.4 1.9 0 3.4-1.6 3.4-3.4v-24.6c0-1.8-1.5-3.4-3.4-3.4-1.9 0-3.4 1.6-3.4 3.4z"/><path class="a" d="m1032.2 462.9c0 1.8 1.5 3.4 3.4 3.4 1.9 0 3.4-1.6 3.4-3.4v-24.6c0-1.8-1.5-3.4-3.4-3.4-1.9 0-3.4 1.6-3.4 3.4z"/><path class="a" d="m1045.9 462.9c0 1.8 1.6 3.4 3.4 3.4 1.9 0 3.4-1.6 3.4-3.4v-24.6c0-1.8-1.5-3.4-3.4-3.4-1.8 0-3.4 1.6-3.4 3.4z"/><path class="a" d="m1109.3 462.9c0 1.8 1.6 3.4 3.4 3.4 1.9 0 3.4-1.6 3.4-3.4v-24.6c0-1.8-1.5-3.4-3.4-3.4-1.8 0-3.4 1.6-3.4 3.4z"/><path class="a" d="m1123.1 462.9c0 1.8 1.5 3.4 3.4 3.4 1.8 0 3.4-1.6 3.4-3.4v-24.6c0-1.8-1.6-3.4-3.4-3.4-1.9 0-3.4 1.6-3.4 3.4z"/><path class="p" d="m1037.4 546.4c0 3.8-3 6.8-6.8 6.8-3.7 0-6.8-3-6.8-6.8 0-3.7 3.1-6.8 6.8-6.8 3.8 0 6.8 3.1 6.8 6.8z"/><path class="p" d="m1090.4 546.4c0 3.8-3 6.8-6.8 6.8-3.7 0-6.8-3-6.8-6.8 0-3.7 3.1-6.8 6.8-6.8 3.8 0 6.8 3.1 6.8 6.8z"/><path class="p" d="m1142.8 546.4c0 3.8-3.1 6.8-6.8 6.8-3.8 0-6.8-3-6.8-6.8 0-3.7 3-6.8 6.8-6.8 3.7 0 6.8 3.1 6.8 6.8z"/><path class="p" d="m827.3 595.1c0 3.8-3.1 6.8-6.8 6.8-3.8 0-6.8-3-6.8-6.8 0-3.7 3-6.8 6.8-6.8 3.7 0 6.8 3.1 6.8 6.8z"/><path class="p" d="m880.3 595.1c0 3.8-3.1 6.8-6.8 6.8-3.8 0-6.8-3-6.8-6.8 0-3.7 3-6.8 6.8-6.8 3.7 0 6.8 3.1 6.8 6.8z"/><path class="p" d="m932.6 595.1c0 3.8-3 6.8-6.8 6.8-3.7 0-6.8-3-6.8-6.8 0-3.7 3.1-6.8 6.8-6.8 3.8 0 6.8 3.1 6.8 6.8z"/><path class="p" d="m984.4 595.1c0 3.8-3 6.8-6.8 6.8-3.7 0-6.8-3-6.8-6.8 0-3.7 3.1-6.8 6.8-6.8 3.8 0 6.8 3.1 6.8 6.8z"/><path class="q" d="m1090.4 641.8c0 2.7-2.1 4.8-4.7 4.8h-221.6c-2.6 0-4.8-2.1-4.8-4.8 0-2.6 2.2-4.8 4.8-4.8h221.6c2.6 0 4.7 2.2 4.7 4.8z"/><path class="q" d="m1036.1 570l-4.2-4.2-14.9 14.8-14.8-14.8-4.2 4.2 14.8 14.9-14.8 14.8 4.2 4.3 14.8-14.9 14.9 14.8 4.2-4.2-14.8-14.8z"/><path class="q" d="m1089.6 570l-4.3-4.2-14.8 14.8-14.8-14.8-4.3 4.2 14.8 14.9-14.8 14.8 4.3 4.3 14.8-14.9 14.8 14.8 4.3-4.2-14.9-14.8z"/><path class="r" d="m1283.7 698.8c0 43.2-35 78.2-78.2 78.2-43.2 0-78.2-35-78.2-78.2 0-43.2 35-78.2 78.2-78.2 43.2 0 78.2 35 78.2 78.2z"/><path class="s" d="m1279.5 696.7c0 43.2-35.1 78.2-78.3 78.2-43.2 0-78.2-35-78.2-78.2 0-43.2 35-78.2 78.2-78.2 43.2 0 78.3 35 78.3 78.2z"/><path class="a" d="m1266.9 696.7c0 36.3-29.4 65.7-65.7 65.7-36.2 0-65.6-29.4-65.6-65.7 0-36.3 29.4-65.6 65.6-65.6 36.3 0 65.7 29.3 65.7 65.6z"/><g clip-path="url(#cp6)"><path class="t" d="m1245.8 648.5l-44.6 51.6h-67.5l-28.5-81.6c0 0 44.6-63.5 49.8-62.7 5.3 0.8 111.9 33.2 111.9 33.2z"/></g><path class="u" d="m1204.6 641.2c0 1.9-1.5 3.4-3.4 3.4-1.8 0-3.3-1.5-3.3-3.4 0-1.9 1.5-3.4 3.3-3.4 1.9 0 3.4 1.5 3.4 3.4z"/><path class="u" d="m1204.6 752.2c0 1.9-1.5 3.4-3.4 3.4-1.8 0-3.3-1.5-3.3-3.4 0-1.8 1.5-3.4 3.3-3.4 1.9 0 3.4 1.6 3.4 3.4z"/><path class="u" d="m1256.7 700.1c-1.8 0-3.3-1.5-3.3-3.4 0-1.9 1.5-3.4 3.3-3.4 1.9 0 3.4 1.5 3.4 3.4 0 1.9-1.5 3.4-3.4 3.4z"/><path class="u" d="m1145.7 700.1c-1.8 0-3.3-1.5-3.3-3.4 0-1.9 1.5-3.4 3.3-3.4 1.9 0 3.4 1.5 3.4 3.4 0 1.9-1.5 3.4-3.4 3.4z"/><path class="u" d="m1242.9 659.8c-1.3 1.4-3.5 1.4-4.8 0-1.3-1.3-1.3-3.4 0-4.7 1.3-1.3 3.5-1.3 4.8 0 1.3 1.3 1.3 3.4 0 4.7z"/><path class="u" d="m1164.4 738.3c-1.3 1.4-3.5 1.4-4.8 0-1.3-1.3-1.3-3.4 0-4.7 1.3-1.3 3.5-1.3 4.8 0 1.3 1.3 1.3 3.4 0 4.7z"/><path class="u" d="m1159.6 659.8c1.3 1.4 3.5 1.4 4.8 0 1.3-1.3 1.3-3.4 0-4.7-1.3-1.3-3.5-1.3-4.8 0-1.3 1.3-1.3 3.4 0 4.7z"/><path class="u" d="m1238.1 738.3c1.3 1.4 3.5 1.4 4.8 0 1.3-1.3 1.3-3.4 0-4.7-1.3-1.3-3.5-1.3-4.8 0-1.3 1.3-1.3 3.4 0 4.7z"/><path class="v" d="m1140.6 702.2c0-36.3 29.4-65.7 65.7-65.7 17.8 0 34.1 7.2 45.9 18.8-12-14.8-30.4-24.2-51-24.2-36.2 0-65.6 29.3-65.6 65.6 0 18.4 7.5 35 19.7 46.9-9.2-11.3-14.7-25.7-14.7-41.4z"/><path class="w" d="m1201.2 697.4l32.8-35.3-31 38.8z"/><path class="x" d="m1151.1 700l48.8-1.3-0.1 3.4z"/><path class="y" d="m1206.6 698.7c0 3-2.4 5.4-5.4 5.4-2.9 0-5.3-2.4-5.3-5.4 0-3 2.4-5.4 5.3-5.4 3 0 5.4 2.4 5.4 5.4z"/><path class="a" d="m941.8 286.1l8.4 16.8 15.4 9.1-15.4 9.2-8.4 16.7-8.4-16.7-15.5-9.2 15.5-9.1z"/><path class="a" d="m719.7 619.5l8.5 16.8 15.5 9.2-15.5 9.2-8.5 16.9-8.5-16.9-15.5-9.2 15.5-9.2z"/><path class="a" d="m1303.6 644l3.3 6.5 6 3.6-6 3.5-3.3 6.5-3.2-6.5-6-3.5 6-3.6z"/><path class="a" d="m679 608.2l3.3 6.5 6 3.5-6 3.6-3.3 6.5-3.3-6.5-5.9-3.6 5.9-3.5z"/><path class="a" d="m737.9 678.8l3.2 6.4 6 3.6-6 3.6-3.2 6.5-3.3-6.5-6-3.6 6-3.6z"/><path class="z" d="m1029 354.1c0-17.1-13.9-31-31-31-17.2 0-31.1 13.9-31.1 31 0 8.1 3.1 15.4 8.1 20.9 5.6 8.2 15.5 25 12.5 38.6l-0.8 2.6h11.3 11.2l-0.7-2.6c-3.1-13.6 6.8-30.4 12.4-38.6 5-5.5 8.1-12.8 8.1-20.9z"/><path class="A" d="m1010.7 425.4c0 1.9-1.5 3.5-3.5 3.5h-18.4c-2 0-3.6-1.6-3.6-3.5 0-1.9 1.6-3.5 3.6-3.5h18.4c2 0 3.5 1.6 3.5 3.5z"/><path class="B" d="m999.8 413.8l11.5-59.3-7.2 3.6-6.1-8.5h-0.1l-6.1 8.5-7.2-3.6 11.5 59.3"/><path class="A" d="m1010.7 416c0 2-1.5 3.5-3.5 3.5h-18.4c-2 0-3.6-1.5-3.6-3.5 0-1.9 1.6-3.5 3.6-3.5h18.4c2 0 3.5 1.6 3.5 3.5z"/><path class="A" d="m1002.3 430.3c0 2.2-1.8 4.1-4.1 4.1-2.2 0-4.1-1.9-4.1-4.1 0-2.3 1.9-4.1 4.1-4.1 2.3 0 4.1 1.8 4.1 4.1z"/><path class="C" d="m1661.7 843.3c-4.7-18-14.1-33.7-28.1-45.8-14.5-12.5-34.2-15.5-52.7-16.2-29.6-1.2-77.8 9.9-87-28.4-6.5-27 1-56.5-10.6-82.4-15.4-34.6-60.5-24.8-87.8-12.6-37.4 16.7-49.3 53.1-53.7 90.8-3.7 31.5-0.6 87.3-40.7 95-22.3 4.3-42.8-9-62.1-17.5-25-10.9-52.4-16.8-78.1-4.9-27.2 12.5-50.5 38.3-55.5 68.4-4.8 29.1 12.8 52.4 36.3 67.4 3.1 2 6.2 2 8.7 0.8 4.3 24.7 15.4 47.8 37.7 61.5 37.5 23 84.6 1.6 117.4-19.4 32.7-20.9 65-55.3 107.2-46.6 23.8 4.9 44.1 20.3 65.1 31.6 20.7 11.2 42.7 21.1 65.8 26 43.8 9.3 85.9-8.5 105.9-49.2 17.4-35.5 22.1-80.2 12.2-118.5z"/><path class="D" d="m480.2 157.1c-10.4-11.7-26.3-22.1-48.5-29.9-8.4-2.9-17-5.1-25.6-7.5q-6.4-1.7-12.7-3.7c-4.3-1.3-9.1-3.1-11.3-4.1-3.6-1.6-7-3.6-10.3-5.8 2.2 1.5-5.8-6-4.1-3.8-3.7-4.9-6.3-11.7-4.8-18.8 3.2-14.9 23.5-24.6 37-26.2 10.3-1.2 19-7.7 19-19 0-9.4-8.7-20.2-19-19q-1.1 0.2-2.2 0.3c-4.9-16-14.7-30.2-34.3-28.4-18.3 1.7-32.8 14.3-47.6 24q-4 2.6-8.2 4.7c-0.9 0.4-4.6 2.1-5.7 2.5-2.9 1.1-5.8 1.8-8.8 2.5-10.7 2.4-22.4-0.9-32.6-4-24.9-7.7-47.4-19.2-73.6-22.3-38.6-4.6-80.1 13.1-111.8 33.7-35.1 23-65.3 55.1-81.6 94.1-15.7 37.5-12.9 79.7 10.4 113.5 15 21.6 33.8 34.6 60 38.1 22.4 2.9 46-5.1 66.8-12.5 20.7-7.4 41.8-16.7 64-18.8 65.3-6.3 126.4 50.1 193.4 45.2 80.7-5.8 137.6-83.5 92.1-134.8z"/><path class="E" d="m1060.3 836c-6.4-2.6-11.8-5.1-17.4-9.2-5.8-4.3-11.2-9-17.2-13.1-8.9-6-19.4-9.2-30-5.9-6.4 2-10.9 7.2-12 13.7-2.5 15.5 9.9 31.4 21.9 39.5 5.9 3.9 12.9 6.2 20 6.2 7.7 2.8 16.5 2.7 24.6 1.6 9.5-1.2 23.5-4.7 27.2-14.9 3.3-9.2-10.9-15.4-17.1-17.9z"/><path class="F" d="m466.7 109.6c6.4 2.6 11.8 5.1 17.4 9.2 5.8 4.3 11.2 9 17.2 13.1 8.9 6 19.4 9.3 30.1 5.9 6.3-2 10.8-7.2 11.9-13.7 2.5-15.5-9.8-31.4-21.9-39.5-5.9-3.9-12.9-6.2-20-6.2-7.7-2.7-16.5-2.7-24.6-1.6-9.5 1.2-23.5 4.7-27.2 14.9-3.3 9.2 10.9 15.4 17.1 17.9z"/><g style="display:none"><path class="G" d="m891.5 194.9h-2v-22.1h2z"/><path class="G" d="m1044.5 194.9h-2v-22.1h2z"/><path class="G" d="m1197.5 194.9h-2v-22.1h2z"/><path fill-rule="evenodd" class="H" d="m1317.1 206h-74.4c-13 0-23.6-10.6-23.6-23.7 0-13 10.6-23.6 23.6-23.6h74.4c13 0 23.6 10.6 23.6 23.6 0 13.1-10.6 23.7-23.6 23.7zm-74.4-43.3c-10.8 0-19.6 8.8-19.6 19.6 0 10.9 8.8 19.7 19.6 19.7h74.4c10.8 0 19.6-8.8 19.6-19.7 0-10.8-8.8-19.6-19.6-19.6z"/></g><path class="G" d="m194.5 374.6v-8.7h21.1v-10.1h-21.1v-8h24v-10.4h-37.4v47.6h38.2v-10.4zm32.4 10.4h22.5c15.8 0 26.6-9.2 26.6-23.8 0-14.6-10.8-23.8-26.6-23.8h-22.5zm13.5-10.7v-26.2h8.5c8.1 0 13.5 4.9 13.5 13.1 0 8.2-5.4 13.1-13.5 13.1zm64.6 11.7c14.1 0 22.4-8 22.4-22.2v-26.4h-13.2v26c0 8.1-3.4 11.4-9 11.4-5.7 0-9.1-3.3-9.1-11.4v-26h-13.4v26.4c0 14.2 8.3 22.2 22.3 22.2zm30-15.4h19.9v-9.9h-19.9zm41.2 4v-8.7h21.2v-10.1h-21.2v-8h24v-10.4h-37.3v47.6h38.2v-10.4zm66.7-37.2l-13.2 31-12.9-31h-14.6l20.3 47.6h13.3l20.4-47.6zm29.4 37.2v-8.7h21.2v-10.1h-21.2v-8h24v-10.4h-37.3v47.6h38.2v-10.4zm64.5-37.2v25.3l-21-25.3h-11.1v47.6h13.2v-25.4l21 25.4h11.1v-47.6zm32.8 47.6h13.5v-37h14.5v-10.6h-42.6v10.6h14.6z"/><path class="H" d="m240 460l-0.1-52.4h-6.1l-21.6 36.8-21.8-36.8h-6.2v52.4h7.2v-37.9l18.9 31.5h3.5l18.9-31.8 0.1 38.2zm54.8 0h7.9l-23.8-52.4h-7.4l-23.7 52.4h7.7l5.7-13.1h27.9zm-31-19.1l11.3-25.6 11.3 25.6zm84.1-33.3v39.1l-31.4-39.1h-6.1v52.4h7.5v-39l31.4 39h6.1v-52.4zm62.3 52.4h7.9l-23.8-52.4h-7.4l-23.7 52.4h7.7l5.7-13.1h27.9zm-31-19.1l11.3-25.6 11.3 25.6zm82.1 9.7c-3.7 2.4-7.8 3.4-12.2 3.4-12.1 0-20.8-8.6-20.8-20.2 0-11.6 8.7-20.1 20.8-20.1 6 0 10.9 1.9 15.2 6.1l4.7-4.7c-4.8-5.3-11.8-8.1-20.2-8.1-16.2 0-28 11.3-28 26.8 0 15.5 11.8 26.8 27.9 26.8 7.3 0 14.6-2.2 19.8-6.6v-20.5h-7.2zm29 3v-17h26.3v-6.3h-26.3v-16.1h29.5v-6.5h-37v52.4h38v-6.5zm85.8 6.5l-12.4-17.6c7.3-2.6 11.5-8.5 11.5-16.6 0-11.3-8.2-18.2-21.8-18.2h-20.4v52.4h7.4v-16h13c1.1 0 2.2-0.1 3.3-0.1l11.3 16.1zm-23-22.3h-12.7v-23.6h12.7c9.6 0 14.6 4.3 14.6 11.7 0 7.5-5 11.9-14.6 11.9z"/><g style="display:none"><path class="G" d="m317.5 717.7h-121.3c-9 0-16.2-7.2-16.2-16.2 0-8.9 7.2-16.1 16.2-16.1h121.3c9 0 16.2 7.2 16.2 16.1 0 9-7.2 16.2-16.2 16.2z"/><path class="a" d="m222.2 706l-2.2-3.1c1.3-0.5 2-1.5 2-2.9 0-2.1-1.4-3.3-3.8-3.3h-3.6v9.3h1.3v-2.8h2.3c0.2 0 0.4 0 0.6 0l2 2.8zm-4.1-3.9h-2.3v-4.2h2.3c1.7 0 2.6 0.7 2.6 2.1 0 1.3-0.9 2.1-2.6 2.1zm7.6 2.7v-2.9h4.7v-1.2h-4.7v-2.8h5.3v-1.2h-6.6v9.3h6.7v-1.2zm14.8 1.2h1.4l-4.2-9.3h-1.4l-4.2 9.3h1.4l1-2.3h5zm-5.5-3.4l2-4.5 2 4.5zm8.5 3.4h3.9c3 0 5-1.9 5-4.7 0-2.7-2-4.6-5-4.6h-3.9zm1.3-1.1v-7h2.5c2.3 0 3.8 1.4 3.8 3.5 0 2.1-1.5 3.5-3.8 3.5zm23.6 1.1v-9.3h-1.1l-3.8 6.6-3.9-6.6h-1.1v9.3h1.3v-6.7l3.3 5.6h0.6l3.4-5.6v6.7zm7.2 0.1c2.9 0 5-2 5-4.7 0-2.7-2.1-4.8-5-4.8-2.8 0-4.9 2.1-4.9 4.8 0 2.7 2.1 4.7 4.9 4.7zm0-1.2c-2 0-3.6-1.5-3.6-3.5 0-2.1 1.6-3.6 3.6-3.6 2.1 0 3.6 1.5 3.6 3.6 0 2-1.5 3.5-3.6 3.5zm14.9 1.1l-2.2-3.1c1.3-0.5 2-1.5 2-2.9 0-2-1.4-3.3-3.8-3.3h-3.7v9.3h1.4v-2.8h2.3c0.2 0 0.4 0 0.5 0l2 2.8zm-4-3.9h-2.3v-4.2h2.3c1.7 0 2.6 0.8 2.6 2.1 0 1.3-0.9 2.1-2.6 2.1zm7.6 2.8v-3h4.7v-1.2h-4.7v-2.8h5.2v-1.2h-6.5v9.3h6.7v-1.1z"/></g><path class="a" d="m188.9 509.1v-3.8h4.7v-0.9h-4.7v-3.7h5.3v-0.9h-6.3v10.2h6.5v-0.9zm17-6.8c-1.2 0-2.2 0.6-2.7 1.6-0.4-1.1-1.3-1.6-2.4-1.6-1.2 0-2.1 0.5-2.6 1.4v-1.4h-0.9v7.7h1v-4c0-1.8 0.9-2.8 2.3-2.8 1.2 0 2 0.8 2 2.5v4.3h0.9v-4c0-1.8 0.9-2.8 2.3-2.8 1.3 0 2 0.8 2 2.5v4.3h0.9v-4.4c0-2.2-1.1-3.3-2.8-3.3zm9.8 0c-1.2 0-2.1 0.5-2.7 1.6v-1.6h-0.9v10.5h0.9v-4.2c0.6 0.9 1.6 1.5 2.7 1.5 1.9 0 3.4-1.6 3.4-3.9 0-2.3-1.5-3.9-3.4-3.9zm-0.1 6.9c-1.5 0-2.6-1.2-2.6-3 0-1.8 1.1-3 2.6-3 1.5 0 2.6 1.2 2.6 3 0 1.8-1.1 3-2.6 3zm9.1 0.9c2 0 3.5-1.7 3.5-3.9 0-2.3-1.5-3.9-3.5-3.9-2 0-3.5 1.6-3.5 3.9 0 2.2 1.5 3.9 3.5 3.9zm0-0.9c-1.5 0-2.6-1.2-2.6-3 0-1.8 1.1-3 2.6-3 1.4 0 2.5 1.2 2.5 3 0 1.8-1.1 3-2.5 3zm15.3-6.9l-2.2 6.5-2.2-6.5h-0.8l-2.2 6.5-2.1-6.5h-0.9l2.6 7.7h0.8l2.2-6.3 2.2 6.3h0.9l2.6-7.7zm8.9 3.9c0-2.3-1.4-3.9-3.3-3.9-2 0-3.4 1.6-3.4 3.9 0 2.2 1.5 3.9 3.6 3.9 1.1 0 2.1-0.5 2.7-1.3l-0.6-0.6c-0.5 0.6-1.2 1-2.1 1-1.5 0-2.6-1.1-2.7-2.7h5.8c0-0.1 0-0.2 0-0.3zm-3.3-3c1.3 0 2.3 1 2.4 2.5h-4.9c0.1-1.5 1.1-2.5 2.5-2.5zm7 0.6v-1.5h-0.9v7.7h0.9v-3.9c0-1.8 0.9-2.8 2.3-2.8 0.1 0 0.2 0 0.2 0v-1c-1.2 0-2.1 0.5-2.5 1.5zm14.4-1.5l-2.6 6.5-2.6-6.5h-1l3.1 7.7-0.3 0.7c-0.4 1-0.8 1.3-1.4 1.3-0.5 0-0.9-0.2-1.3-0.6l-0.4 0.8c0.4 0.5 1 0.7 1.7 0.7 0.9 0 1.7-0.5 2.2-2l3.5-8.6zm5.7 7.8c2 0 3.5-1.7 3.5-3.9 0-2.3-1.5-3.9-3.5-3.9-2 0-3.5 1.6-3.5 3.9 0 2.2 1.5 3.9 3.5 3.9zm0-0.9c-1.5 0-2.6-1.2-2.6-3 0-1.8 1.1-3 2.6-3 1.5 0 2.6 1.2 2.6 3 0 1.8-1.1 3-2.6 3zm11.6-6.9v4.1c0 1.7-0.9 2.7-2.4 2.7-1.3 0-2.1-0.8-2.1-2.4v-4.4h-0.9v4.5c0 2.2 1.2 3.3 2.9 3.3 1.1 0 2-0.6 2.5-1.5v1.4h0.9v-7.7zm5.3 1.5v-1.5h-0.9v7.7h0.9v-3.9c0-1.8 0.9-2.8 2.3-2.8 0.1 0 0.2 0 0.3 0v-1c-1.3 0-2.2 0.5-2.6 1.5zm15.5 2.4c0-2.3-1.4-3.9-3.3-3.9-1.9 0-3.4 1.6-3.4 3.9 0 2.2 1.5 3.9 3.6 3.9 1.1 0 2.1-0.5 2.7-1.3l-0.5-0.6c-0.5 0.6-1.3 1-2.1 1-1.5 0-2.6-1.1-2.7-2.7h5.7c0-0.1 0-0.2 0-0.3zm-3.3-3c1.3 0 2.3 1 2.4 2.5h-4.8c0.1-1.5 1.1-2.5 2.4-2.5zm11.5-4v4.6c-0.6-1-1.6-1.5-2.7-1.5-1.9 0-3.4 1.6-3.4 3.9 0 2.3 1.5 3.9 3.4 3.9 1.2 0 2.1-0.6 2.7-1.6v1.5h0.9v-10.8zm-2.6 10c-1.4 0-2.5-1.2-2.5-3 0-1.8 1.1-3 2.5-3 1.5 0 2.6 1.2 2.6 3 0 1.8-1.1 3-2.6 3zm12.3-6.9v4.1c0 1.7-0.9 2.7-2.4 2.7-1.3 0-2.1-0.8-2.1-2.4v-4.4h-0.9v4.5c0 2.2 1.2 3.3 2.9 3.3 1.1 0 2-0.6 2.5-1.5v1.4h0.9v-7.7zm7.3 7.8c1.1 0 2.1-0.6 2.7-1.5l-0.7-0.6c-0.5 0.8-1.2 1.2-2 1.2-1.6 0-2.7-1.2-2.7-3 0-1.8 1.1-3 2.7-3 0.8 0 1.5 0.4 2 1.1l0.7-0.5c-0.6-1-1.6-1.5-2.7-1.5-2.1 0-3.6 1.6-3.6 3.9 0 2.3 1.5 3.9 3.6 3.9zm7.8-7.8c-1.1 0-2.2 0.4-2.8 1l0.4 0.8c0.5-0.6 1.4-0.9 2.3-0.9 1.2 0 1.9 0.7 1.9 2v0.5h-2.2c-1.9 0-2.6 1-2.6 2.1 0 1.4 0.9 2.3 2.5 2.3 1.1 0 1.9-0.5 2.4-1.3v1.2h0.8v-4.7c0-2-1-3-2.7-3zm-0.4 7c-1.1 0-1.7-0.6-1.7-1.5 0-0.8 0.4-1.4 1.8-1.4h2.1v1.3c-0.4 1-1.1 1.6-2.2 1.6zm9.8-0.5c-0.2 0.3-0.6 0.4-1 0.4-0.7 0-1.2-0.5-1.2-1.4v-4.6h2.1v-0.9h-2.1v-1.6h-0.9v1.6h-1.2v0.9h1.2v4.6c0 1.5 0.7 2.3 2 2.3 0.6 0 1.1-0.2 1.5-0.6zm3.3-8.1c0.4 0 0.7-0.3 0.7-0.7 0-0.4-0.3-0.8-0.7-0.8-0.3 0-0.6 0.4-0.6 0.8 0 0.4 0.3 0.7 0.6 0.7zm-0.4 9.3h0.9v-7.6h-0.9zm7.2 0.1c2 0 3.5-1.7 3.5-3.9 0-2.3-1.5-3.9-3.5-3.9-2 0-3.5 1.6-3.5 3.9 0 2.2 1.5 3.9 3.5 3.9zm0-1c-1.5 0-2.6-1.1-2.6-2.9 0-1.8 1.1-3 2.6-3 1.4 0 2.5 1.2 2.5 3 0 1.8-1.1 2.9-2.5 2.9zm9.8-6.8c-1.2 0-2.2 0.5-2.7 1.4v-1.4h-0.9v7.7h1v-4c0-1.8 0.9-2.8 2.4-2.8 1.3 0 2 0.8 2 2.5v4.3h1v-4.4c0-2.2-1.2-3.3-2.8-3.3zm8.6 0c-1.1 0-2.1 0.4-2.8 1l0.4 0.8c0.6-0.6 1.4-0.9 2.3-0.9 1.3 0 1.9 0.7 1.9 2v0.5h-2.1c-2 0-2.7 1-2.7 2.1 0 1.4 1 2.3 2.5 2.3 1.2 0 2-0.5 2.4-1.3v1.2h0.9v-4.8c0-1.9-1-2.9-2.8-2.9zm-0.3 6.9c-1.1 0-1.8-0.5-1.8-1.4 0-0.8 0.5-1.4 1.8-1.4h2.1v1.3c-0.3 1-1.1 1.5-2.1 1.5zm6.5 0.8h0.9v-10.8h-0.9zm14.7-3.8c0-2.3-1.4-3.9-3.3-3.9-2 0-3.4 1.6-3.4 3.9 0 2.2 1.5 3.9 3.6 3.9 1.1 0 2-0.5 2.7-1.3l-0.6-0.7c-0.5 0.7-1.2 1-2.1 1-1.5 0-2.6-1-2.7-2.6h5.8c0-0.1 0-0.2 0-0.3zm-3.3-3c1.3 0 2.3 1 2.4 2.5h-4.9c0.1-1.5 1.1-2.5 2.5-2.5zm10.8-0.9l-2.6 6.6-2.6-6.6h-1l3.1 7.7h1l3-7.7zm8.9 3.9c0-2.3-1.4-3.9-3.3-3.9-1.9 0-3.4 1.6-3.4 3.9 0 2.2 1.5 3.9 3.6 3.9 1.1 0 2.1-0.5 2.7-1.3l-0.5-0.7c-0.5 0.7-1.3 1-2.1 1-1.5 0-2.6-1-2.7-2.6h5.7c0-0.1 0-0.2 0-0.3zm-3.3-3c1.3 0 2.3 1 2.4 2.5h-4.8c0.1-1.5 1.1-2.5 2.4-2.5zm9.6-0.9c-1.2 0-2.1 0.5-2.6 1.4v-1.4h-0.9v7.7h0.9v-4c0-1.8 1-2.8 2.4-2.8 1.4 0 2.1 0.8 2.1 2.5v4.3h0.9v-4.4c0-2.2-1.1-3.3-2.8-3.3zm9.5 6.5c-0.2 0.2-0.6 0.4-1 0.4-0.8 0-1.2-0.5-1.2-1.4v-4.6h2.1v-0.9h-2.1v-1.6h-0.9v1.6h-1.2v0.9h1.2v4.6c0 1.4 0.7 2.3 2 2.3 0.6 0 1.1-0.2 1.5-0.6zm4.7 1.3c1.8 0 2.8-0.9 2.8-2.2 0-2.9-4.4-1.4-4.4-3.4 0-0.8 0.5-1.3 1.8-1.3 0.7 0 1.4 0.2 2 0.7l0.4-0.9c-0.6-0.4-1.5-0.7-2.4-0.7-1.8 0-2.7 1-2.7 2.2 0 3 4.4 1.5 4.4 3.5 0 0.7-0.5 1.2-1.8 1.2-1 0-1.9-0.4-2.5-0.9l-0.4 0.9c0.6 0.5 1.7 0.9 2.8 0.9zm19-7.7l-2.2 6.5-2.2-6.5h-0.8l-2.2 6.5-2.2-6.5h-0.9l2.6 7.6h0.9l2.2-6.2 2.2 6.2h0.8l2.6-7.6zm3.6-1.7c0.4 0 0.7-0.3 0.7-0.7 0-0.4-0.3-0.8-0.7-0.8-0.3 0-0.6 0.4-0.6 0.8 0 0.4 0.3 0.7 0.6 0.7zm-0.4 9.3h0.9v-7.6h-0.9zm7.7-1.2c-0.3 0.2-0.7 0.4-1.1 0.4-0.7 0-1.1-0.5-1.1-1.4v-4.6h2.1v-0.9h-2.1v-1.6h-1v1.6h-1.2v0.9h1.2v4.6c0 1.4 0.7 2.3 2 2.3 0.6 0 1.1-0.2 1.5-0.6zm6.4-6.5c-1.2 0-2.1 0.5-2.6 1.4v-4.5h-0.9v10.8h0.9v-4c0-1.7 0.9-2.8 2.4-2.8 1.3 0 2.1 0.9 2.1 2.5v4.3h0.9v-4.4c0-2.2-1.1-3.3-2.8-3.3zm13.3 7.8c2.1 0 3.5-1.6 3.5-3.9 0-2.3-1.4-3.9-3.5-3.9-2 0-3.5 1.6-3.5 3.9 0 2.3 1.5 3.9 3.5 3.9zm0-0.9c-1.4 0-2.5-1.2-2.5-3 0-1.8 1.1-3 2.5-3 1.5 0 2.6 1.2 2.6 3 0 1.8-1.1 3-2.6 3zm11.6-6.8v4c0 1.7-0.9 2.8-2.4 2.8-1.3 0-2-0.9-2-2.5v-4.3h-1v4.4c0 2.2 1.2 3.3 3 3.3 1.1 0 1.9-0.5 2.4-1.5v1.4h0.9v-7.6zm5.3 1.5v-1.5h-0.9v7.6h1v-3.9c0-1.8 0.8-2.8 2.3-2.8 0 0 0.1 0 0.2 0v-1c-1.3 0-2.1 0.5-2.6 1.6zm12.4 6.2c1.2 0 2.2-0.5 2.7-1.5l-0.7-0.5c-0.5 0.7-1.2 1.1-2 1.1-1.5 0-2.6-1.2-2.6-3 0-1.8 1.1-3 2.6-3 0.8 0 1.5 0.4 2 1.1l0.7-0.5c-0.5-1-1.5-1.5-2.7-1.5-2 0-3.5 1.6-3.5 3.9 0 2.3 1.5 3.9 3.5 3.9zm10.7-7.7v4c0 1.7-0.9 2.8-2.4 2.8-1.3 0-2-0.9-2-2.5v-4.3h-1v4.4c0 2.2 1.2 3.3 2.9 3.3 1.1 0 2-0.5 2.5-1.5v1.4h0.9v-7.6zm7.7 6.4c-0.2 0.3-0.6 0.4-1 0.4-0.8 0-1.2-0.5-1.2-1.4v-4.6h2.1v-0.8h-2.1v-1.7h-0.9v1.7h-1.3v0.8h1.3v4.7c0 1.4 0.7 2.2 2 2.2 0.5 0 1.1-0.2 1.4-0.5zm6.1 0c-0.3 0.2-0.7 0.3-1.1 0.3-0.7 0-1.2-0.4-1.2-1.3v-4.6h2.1v-0.9h-2.1v-1.7h-0.9v1.7h-1.2v0.9h1.2v4.6c0 1.4 0.7 2.2 2 2.2 0.6 0 1.1-0.1 1.5-0.5zm3.3-8.1c0.4 0 0.7-0.4 0.7-0.8 0-0.4-0.3-0.7-0.7-0.7-0.3 0-0.6 0.3-0.6 0.7 0 0.4 0.3 0.8 0.6 0.8zm-0.4 9.3h0.9v-7.6h-0.9zm7.9-7.8c-1.2 0-2.1 0.6-2.6 1.5v-1.4h-0.9v7.7h0.9v-4.1c0-1.7 0.9-2.7 2.4-2.7 1.3 0 2.1 0.8 2.1 2.4v4.4h0.9v-4.5c0-2.2-1.2-3.3-2.8-3.3zm11.7 0.1v1.5c-0.6-1-1.6-1.6-2.7-1.6-2 0-3.5 1.5-3.5 3.7 0 2.2 1.5 3.8 3.5 3.8 1.1 0 2.1-0.5 2.7-1.5v1c0 1.8-0.8 2.7-2.6 2.7-1 0-2-0.4-2.7-1l-0.4 0.8c0.7 0.7 1.9 1.1 3.2 1.1 2.2 0 3.4-1.1 3.4-3.8v-6.7zm-2.6 6.4c-1.5 0-2.6-1.1-2.6-2.8 0-1.6 1.1-2.8 2.6-2.8 1.5 0 2.6 1.2 2.6 2.8 0 1.7-1.1 2.8-2.6 2.8zm6.5-2.2h3.4v-0.9h-3.4zm12.5-0.4c0-2.3-1.4-3.9-3.3-3.9-2 0-3.4 1.7-3.4 3.9 0 2.3 1.5 3.9 3.6 3.9 1.1 0 2-0.4 2.7-1.2l-0.6-0.7c-0.5 0.7-1.2 1-2.1 1-1.5 0-2.6-1.1-2.7-2.7h5.8c0-0.1 0-0.2 0-0.3zm-3.3-3c1.3 0 2.3 1.1 2.4 2.6h-4.9c0.1-1.5 1.1-2.6 2.5-2.6zm11.4-3.9v4.6c-0.6-1-1.5-1.6-2.6-1.6-2 0-3.4 1.6-3.4 3.9 0 2.3 1.4 3.9 3.4 3.9 1.1 0 2.1-0.5 2.7-1.6v1.6h0.8v-10.8zm-2.5 9.9c-1.5 0-2.6-1.2-2.6-3 0-1.8 1.1-3 2.6-3 1.5 0 2.6 1.2 2.6 3 0 1.8-1.1 3-2.6 3zm12.4-6.8v1.5c-0.5-1-1.5-1.6-2.7-1.6-2 0-3.4 1.5-3.4 3.7 0 2.2 1.4 3.8 3.4 3.8 1.1 0 2.1-0.5 2.7-1.5v1c0 1.8-0.8 2.7-2.5 2.7-1.1 0-2.1-0.4-2.8-1l-0.4 0.8c0.7 0.7 1.9 1.1 3.2 1.1 2.3 0 3.4-1.1 3.4-3.8v-6.7zm-2.6 6.4c-1.5 0-2.6-1.1-2.6-2.8 0-1.6 1.1-2.8 2.6-2.8 1.5 0 2.6 1.2 2.6 2.8 0 1.7-1.1 2.8-2.6 2.8zm13-2.6c0-2.3-1.4-3.9-3.3-3.9-2 0-3.4 1.7-3.4 3.9 0 2.3 1.5 3.9 3.6 3.9 1.1 0 2.1-0.4 2.7-1.2l-0.6-0.7c-0.5 0.7-1.2 1-2.1 1-1.5 0-2.6-1.1-2.7-2.7h5.8c0-0.1 0-0.2 0-0.3zm-3.3-3c1.3 0 2.3 1.1 2.4 2.6h-4.9c0.1-1.5 1.1-2.6 2.5-2.6zm11.5 5.9v-3.8h4.8v-0.9h-4.8v-3.6h5.4v-0.9h-6.3v10.2h6.5v-1zm13.7-9.8v4.6c-0.6-1-1.5-1.6-2.6-1.6-2 0-3.5 1.6-3.5 3.9 0 2.3 1.5 3.9 3.5 3.9 1.1 0 2.1-0.5 2.6-1.6v1.6h0.9v-10.8zm-2.5 9.9c-1.5 0-2.6-1.2-2.6-3 0-1.8 1.1-3 2.6-3 1.4 0 2.5 1.2 2.5 3 0 1.8-1.1 3-2.5 3zm12.2-6.8v4c0 1.8-0.9 2.8-2.4 2.8-1.3 0-2-0.8-2-2.5v-4.3h-1v4.4c0 2.2 1.2 3.3 2.9 3.3 1.1 0 2-0.5 2.5-1.4v1.4h0.9v-7.7zm-447.1 28.9v-3.8h4.7v-0.9h-4.7v-3.6h5.3v-0.9h-6.3v10.2h6.5v-1zm13.2-6.7l-2.6 6.5-2.6-6.5h-1l3.1 7.7h0.9l3.1-7.7zm8.9 3.8c0-2.3-1.4-3.9-3.3-3.9-2 0-3.4 1.7-3.4 3.9 0 2.3 1.5 3.9 3.6 3.9 1.1 0 2.1-0.4 2.7-1.2l-0.5-0.7c-0.6 0.7-1.3 1-2.1 1-1.5 0-2.6-1.1-2.8-2.7h5.8c0-0.1 0-0.2 0-0.3zm-3.3-3c1.3 0 2.3 1.1 2.4 2.6h-4.9c0.2-1.5 1.1-2.6 2.5-2.6zm9.6-0.9c-1.2 0-2.1 0.6-2.6 1.5v-1.4h-0.9v7.7h0.9v-4.1c0-1.7 1-2.7 2.4-2.7 1.3 0 2.1 0.8 2.1 2.4v4.4h0.9v-4.5c0-2.2-1.1-3.3-2.8-3.3zm9.5 6.5c-0.2 0.3-0.6 0.4-1 0.4-0.8 0-1.2-0.5-1.2-1.4v-4.5h2.1v-0.9h-2.1v-1.7h-0.9v1.7h-1.2v0.9h1.2v4.6c0 1.4 0.7 2.2 2 2.2 0.5 0 1.1-0.1 1.5-0.5zm16.1-9l-4 7.6-4-7.6h-0.7v10.2h0.9v-8.1l3.6 6.8h0.4l3.6-6.9v8.2h1v-10.2zm6.8 2.5c-1 0-2.1 0.4-2.8 1l0.5 0.8c0.5-0.6 1.4-0.9 2.3-0.9 1.2 0 1.9 0.7 1.9 2v0.5h-2.2c-2 0-2.6 1-2.6 2.1 0 1.4 0.9 2.3 2.5 2.3 1.1 0 1.9-0.5 2.3-1.3v1.2h0.9v-4.7c0-2-1-3-2.8-3zm-0.3 7c-1.1 0-1.7-0.6-1.7-1.5 0-0.8 0.4-1.4 1.7-1.4h2.2v1.3c-0.4 1-1.1 1.6-2.2 1.6zm10-7c-1.2 0-2.1 0.5-2.6 1.5v-1.5h-0.9v7.7h1v-4c0-1.8 0.9-2.8 2.4-2.8 1.3 0 2 0.8 2 2.5v4.3h1v-4.4c0-2.2-1.2-3.3-2.9-3.3zm8.7 0c-1.1 0-2.1 0.4-2.8 1l0.4 0.8c0.6-0.6 1.4-0.9 2.3-0.9 1.3 0 1.9 0.7 1.9 2v0.5h-2.1c-2 0-2.7 1-2.7 2.1 0 1.4 0.9 2.3 2.5 2.3 1.1 0 2-0.5 2.4-1.3v1.2h0.9v-4.7c0-2-1-3-2.8-3zm-0.3 7c-1.1 0-1.8-0.6-1.8-1.5 0-0.8 0.4-1.4 1.8-1.4h2.1v1.3c-0.3 1-1.1 1.6-2.1 1.6zm12-7v1.5c-0.6-1-1.6-1.5-2.7-1.5-2 0-3.5 1.5-3.5 3.7 0 2.2 1.5 3.7 3.5 3.7 1.1 0 2.1-0.5 2.6-1.5v1c0 1.9-0.8 2.8-2.5 2.8-1.1 0-2.1-0.4-2.7-1.1l-0.5 0.8c0.7 0.8 2 1.2 3.2 1.2 2.3 0 3.5-1.2 3.5-3.8v-6.8zm-2.7 6.5c-1.5 0-2.6-1.2-2.6-2.8 0-1.7 1.1-2.8 2.6-2.8 1.6 0 2.7 1.1 2.7 2.8 0 1.6-1.1 2.8-2.7 2.8zm13.1-2.6c0-2.3-1.4-3.9-3.4-3.9-1.9 0-3.4 1.6-3.4 3.9 0 2.2 1.5 3.9 3.7 3.9 1 0 2-0.5 2.6-1.3l-0.5-0.7c-0.5 0.7-1.3 1.1-2.1 1.1-1.5 0-2.6-1.1-2.7-2.7h5.7c0-0.1 0.1-0.2 0.1-0.3zm-3.4-3c1.4 0 2.3 1 2.5 2.5h-4.9c0.1-1.5 1.1-2.5 2.4-2.5zm7 0.6v-1.5h-0.9v7.7h1v-3.9c0-1.8 0.8-2.8 2.3-2.8 0 0 0.1 0 0.2 0v-1c-1.3 0-2.2 0.5-2.6 1.5zm5.2 6.3c0.4 0 0.7-0.4 0.7-0.8 0-0.5-0.3-0.8-0.7-0.8-0.4 0-0.7 0.3-0.7 0.8 0 0.4 0.3 0.8 0.7 0.8zm19.7-10.3l-2.7 8.8-2.7-8.8h-0.9l-2.7 8.8-2.6-8.8h-1l3 10.2h1.1l2.7-8.7 2.6 8.7h1.1l3.1-10.2zm8.8 6.4c0-2.3-1.4-3.9-3.3-3.9-2 0-3.4 1.6-3.4 3.9 0 2.2 1.5 3.9 3.6 3.9 1.1 0 2.1-0.5 2.7-1.3l-0.5-0.7c-0.6 0.7-1.3 1.1-2.2 1.1-1.5 0-2.6-1.1-2.7-2.7h5.8c0-0.1 0-0.2 0-0.3zm-3.3-3c1.3 0 2.3 1 2.4 2.5h-4.9c0.2-1.5 1.1-2.5 2.5-2.5zm12.2 6.9c1.8 0 2.9-0.9 2.9-2.2 0-3-4.5-1.4-4.5-3.5 0-0.7 0.6-1.2 1.8-1.2 0.7 0 1.4 0.2 2 0.6l0.4-0.8c-0.5-0.4-1.5-0.7-2.4-0.7-1.8 0-2.7 0.9-2.7 2.2 0 3 4.4 1.4 4.4 3.4 0 0.8-0.5 1.3-1.8 1.3-1 0-1.9-0.4-2.4-0.9l-0.5 0.8c0.6 0.6 1.7 1 2.8 1zm11.5-3.9c0-2.3-1.4-3.9-3.4-3.9-1.9 0-3.3 1.6-3.3 3.9 0 2.2 1.4 3.9 3.6 3.9 1.1 0 2-0.5 2.6-1.3l-0.5-0.7c-0.5 0.7-1.3 1.1-2.1 1.1-1.5 0-2.6-1.1-2.7-2.7h5.8c0-0.1 0-0.2 0-0.3zm-3.4-3c1.4 0 2.4 1 2.5 2.5h-4.9c0.1-1.5 1.1-2.5 2.4-2.5zm8.4-0.9c-1.1 0-2.1 0.4-2.8 1l0.4 0.8c0.5-0.6 1.4-0.9 2.3-0.9 1.3 0 1.9 0.7 1.9 2v0.5h-2.2c-1.9 0-2.6 1-2.6 2.1 0 1.4 0.9 2.3 2.5 2.3 1.1 0 1.9-0.5 2.4-1.3v1.2h0.8v-4.7c0-2-1-3-2.7-3zm-0.4 7c-1.1 0-1.7-0.6-1.7-1.5 0-0.8 0.4-1.4 1.8-1.4h2.1v1.3c-0.3 1-1.1 1.6-2.2 1.6zm15.1-7c-1.2 0-2.2 0.6-2.7 1.6-0.4-1.1-1.3-1.6-2.4-1.6-1.2 0-2.1 0.5-2.6 1.4v-1.4h-0.9v7.7h1v-4c0-1.8 0.9-2.8 2.3-2.8 1.2 0 2 0.8 2 2.5v4.3h0.9v-4c0-1.8 0.9-2.8 2.3-2.8 1.3 0 2 0.8 2 2.5v4.3h0.9v-4.4c0-2.2-1.1-3.3-2.8-3.3zm6.2 7.7h0.9v-10.8h-0.9zm10.4-3.8c0-2.3-1.4-3.9-3.3-3.9-2 0-3.4 1.6-3.4 3.9 0 2.2 1.5 3.9 3.6 3.9 1.1 0 2.1-0.5 2.7-1.3l-0.5-0.6c-0.6 0.6-1.3 1-2.1 1-1.5 0-2.6-1.1-2.8-2.7h5.8c0-0.1 0-0.2 0-0.3zm-3.3-3c1.3 0 2.3 1 2.4 2.5h-4.9c0.2-1.5 1.1-2.5 2.5-2.5zm7.9 6.9c1.8 0 2.9-0.9 2.9-2.2 0-2.9-4.5-1.4-4.5-3.5 0-0.7 0.6-1.2 1.8-1.2 0.7 0 1.4 0.2 2 0.6l0.4-0.8c-0.5-0.4-1.5-0.7-2.4-0.7-1.7 0-2.7 0.9-2.7 2.2 0 3 4.5 1.4 4.5 3.4 0 0.8-0.6 1.3-1.9 1.3-1 0-1.9-0.4-2.4-0.9l-0.5 0.8c0.6 0.6 1.7 1 2.8 1zm7.3 0c1.8 0 2.9-0.9 2.9-2.2 0-2.9-4.5-1.4-4.5-3.5 0-0.7 0.5-1.2 1.8-1.2 0.7 0 1.4 0.2 2 0.6l0.4-0.8c-0.6-0.4-1.5-0.7-2.4-0.7-1.8 0-2.7 0.9-2.7 2.2 0 3 4.4 1.4 4.4 3.4 0 0.8-0.5 1.3-1.8 1.3-1 0-1.9-0.4-2.5-0.9l-0.4 0.8c0.6 0.6 1.7 1 2.8 1zm5.4-0.1h1v-10.8h-1zm9.3-7.6l-2.6 6.5-2.6-6.5h-0.9l3 7.6-0.3 0.7c-0.4 1-0.8 1.3-1.4 1.3-0.5 0-0.9-0.2-1.2-0.6l-0.5 0.8c0.4 0.5 1.1 0.7 1.7 0.7 1 0 1.7-0.5 2.3-2l3.4-8.5zm10.2 7.7c2.1 0 3.5-1.7 3.5-3.9 0-2.3-1.4-3.9-3.5-3.9-2 0-3.5 1.6-3.5 3.9 0 2.2 1.5 3.9 3.5 3.9zm0-0.9c-1.4 0-2.5-1.2-2.5-3 0-1.8 1.1-3 2.5-3 1.5 0 2.6 1.2 2.6 3 0 1.8-1.1 3-2.6 3zm7.2-5.4v-1.4h-0.9v7.6h0.9v-3.9c0-1.8 0.9-2.8 2.4-2.8 0 0 0.1 0 0.2 0v-1c-1.3 0-2.2 0.5-2.6 1.5zm10.6-1.4v1.4c-0.6-1-1.6-1.5-2.8-1.5-1.9 0-3.4 1.5-3.4 3.7 0 2.2 1.5 3.7 3.4 3.7 1.2 0 2.1-0.5 2.7-1.5v1c0 1.9-0.8 2.8-2.5 2.8-1.1 0-2.1-0.4-2.7-1.1l-0.5 0.8c0.7 0.8 1.9 1.2 3.2 1.2 2.3 0 3.4-1.2 3.4-3.8v-6.7zm-2.6 6.4c-1.5 0-2.6-1.2-2.6-2.8 0-1.7 1.1-2.8 2.6-2.8 1.5 0 2.6 1.1 2.6 2.8 0 1.6-1.1 2.8-2.6 2.8zm9.4-6.5c-1.1 0-2.1 0.4-2.8 1l0.4 0.8c0.6-0.6 1.4-0.9 2.3-0.9 1.3 0 2 0.7 2 2v0.5h-2.2c-2 0-2.7 1-2.7 2.2 0 1.3 1 2.2 2.6 2.2 1.1 0 1.9-0.5 2.3-1.3v1.2h0.9v-4.7c0-2-1-3-2.8-3zm-0.3 7c-1.1 0-1.7-0.6-1.7-1.5 0-0.8 0.4-1.3 1.7-1.3h2.2v1.2c-0.4 1-1.2 1.6-2.2 1.6zm10-7c-1.2 0-2.1 0.5-2.6 1.5v-1.4h-0.9v7.6h0.9v-4c0-1.8 1-2.8 2.5-2.8 1.3 0 2 0.9 2 2.5v4.3h1v-4.4c0-2.2-1.2-3.3-2.9-3.3zm6.7-1.6c0.4 0 0.7-0.4 0.7-0.8 0-0.4-0.3-0.7-0.7-0.7-0.4 0-0.7 0.3-0.7 0.7 0 0.4 0.3 0.8 0.7 0.8zm-0.4 9.3h0.9v-7.6h-0.9zm4.8-0.9l4.3-6.1v-0.7h-5.4v0.9h4.2l-4.3 6.1v0.7h5.6v-0.9zm13-3c0-2.3-1.4-3.9-3.3-3.9-2 0-3.4 1.7-3.4 3.9 0 2.3 1.5 3.9 3.6 3.9 1.1 0 2.1-0.4 2.7-1.2l-0.5-0.7c-0.6 0.7-1.3 1-2.1 1-1.5 0-2.6-1.1-2.8-2.7h5.8c0-0.1 0-0.2 0-0.3zm-3.3-3c1.3 0 2.3 1.1 2.4 2.6h-4.9c0.2-1.5 1.1-2.6 2.5-2.6zm6.2 5.3c-0.4 0-0.7 0.4-0.7 0.8 0 0.4 0.2 0.7 0.5 0.8l-0.5 2.1h0.7l0.5-2c0.1-0.4 0.2-0.6 0.2-0.9 0-0.4-0.3-0.8-0.7-0.8zm11.4-6.2c-1.1 0-2.1 0.6-2.7 1.6v-1.5h-0.9v10.5h1v-4.3c0.6 1 1.5 1.5 2.6 1.5 2 0 3.4-1.5 3.4-3.9 0-2.3-1.4-3.9-3.4-3.9zm-0.1 6.9c-1.4 0-2.5-1.2-2.5-3 0-1.8 1.1-3 2.5-3 1.5 0 2.6 1.2 2.6 3 0 1.8-1.1 3-2.6 3zm7.2-5.3v-1.5h-0.9v7.7h0.9v-3.9c0-1.9 0.9-2.9 2.3-2.9 0.1 0 0.2 0 0.3 0v-1c-1.3 0-2.2 0.6-2.6 1.6zm7.9 6.2c2 0 3.5-1.6 3.5-3.9 0-2.2-1.5-3.9-3.5-3.9-2 0-3.5 1.7-3.5 3.9 0 2.3 1.5 3.9 3.5 3.9zm0-0.9c-1.5 0-2.6-1.2-2.6-3 0-1.8 1.1-3 2.6-3 1.4 0 2.5 1.2 2.5 3 0 1.8-1.1 3-2.5 3zm14.8-6.9c-1.2 0-2.2 0.7-2.7 1.7-0.4-1.1-1.3-1.7-2.4-1.7-1.2 0-2.1 0.6-2.6 1.5v-1.4h-0.9v7.7h1v-4.1c0-1.7 0.9-2.7 2.3-2.7 1.2 0 2 0.8 2 2.4v4.4h0.9v-4.1c0-1.7 0.9-2.7 2.3-2.7 1.2 0 2 0.8 2 2.4v4.4h0.9v-4.5c0-2.2-1.1-3.3-2.8-3.3zm9 7.8c2.1 0 3.5-1.6 3.5-3.9 0-2.2-1.4-3.9-3.5-3.9-2 0-3.5 1.7-3.5 3.9 0 2.3 1.5 3.9 3.5 3.9zm0-0.9c-1.4 0-2.5-1.2-2.5-3 0-1.8 1.1-3 2.5-3 1.5 0 2.6 1.2 2.6 3 0 1.8-1.1 3-2.6 3zm9.6-0.4c-0.2 0.3-0.6 0.4-1 0.4-0.8 0-1.2-0.5-1.2-1.4v-4.5h2.1v-0.9h-2.1v-1.7h-0.9v1.7h-1.3v0.9h1.3v4.6c0 1.4 0.7 2.2 2 2.2 0.5 0 1.1-0.2 1.4-0.5zm8.7-2.6c0-2.3-1.4-3.9-3.3-3.9-2 0-3.4 1.6-3.4 3.9 0 2.2 1.5 3.9 3.6 3.9 1.1 0 2-0.5 2.7-1.3l-0.6-0.7c-0.5 0.7-1.2 1-2.1 1-1.5 0-2.6-1-2.7-2.6h5.8c0-0.1 0-0.2 0-0.3zm-3.3-3c1.3 0 2.3 1 2.4 2.5h-4.9c0.1-1.5 1.1-2.5 2.5-2.5zm12.8-0.9c-1.1 0-2.1 0.4-2.8 1l0.4 0.8c0.6-0.6 1.4-0.9 2.3-0.9 1.3 0 1.9 0.7 1.9 2v0.5h-2.2c-1.9 0-2.6 1-2.6 2.1 0 1.4 0.9 2.3 2.5 2.3 1.1 0 2-0.5 2.4-1.3v1.2h0.9v-4.8c0-1.9-1-2.9-2.8-2.9zm-0.4 7c-1.1 0-1.7-0.6-1.7-1.5 0-0.8 0.4-1.4 1.8-1.4h2.1v1.3c-0.3 1-1.1 1.6-2.2 1.6zm10.1-7c-1.2 0-2.1 0.5-2.6 1.5v-1.5h-0.9v7.7h0.9v-4c0-1.8 0.9-2.8 2.4-2.8 1.3 0 2.1 0.8 2.1 2.5v4.3h0.9v-4.4c0-2.2-1.1-3.3-2.8-3.3zm11.6-3.1v4.6c-0.6-1-1.5-1.5-2.6-1.5-2 0-3.5 1.6-3.5 3.9 0 2.3 1.5 3.9 3.5 3.9 1.1 0 2.1-0.6 2.6-1.6v1.5h0.9v-10.8zm-2.5 9.9c-1.5 0-2.6-1.1-2.6-2.9 0-1.8 1.1-3 2.6-3 1.4 0 2.5 1.2 2.5 3 0 1.8-1.1 2.9-2.5 2.9zm17.2-2.9c0-2.3-1.4-3.9-3.3-3.9-2 0-3.4 1.6-3.4 3.9 0 2.2 1.5 3.9 3.6 3.9 1.1 0 2.1-0.5 2.7-1.3l-0.5-0.7c-0.6 0.7-1.3 1-2.1 1-1.5 0-2.6-1-2.7-2.6h5.7c0-0.1 0-0.2 0-0.3zm-3.3-3c1.3 0 2.3 1 2.4 2.5h-4.8c0.1-1.5 1.1-2.5 2.4-2.5zm9.6-0.9c-1.2 0-2.1 0.5-2.6 1.5v-1.5h-0.9v7.7h0.9v-4c0-1.8 1-2.8 2.4-2.8 1.3 0 2.1 0.8 2.1 2.5v4.3h0.9v-4.4c0-2.2-1.1-3.3-2.8-3.3zm11.8 0v1.5c-0.6-1-1.6-1.5-2.8-1.5-1.9 0-3.4 1.5-3.4 3.7 0 2.2 1.5 3.7 3.4 3.7 1.2 0 2.1-0.5 2.7-1.5v1c0 1.9-0.8 2.8-2.5 2.8-1.1 0-2.1-0.4-2.7-1.1l-0.5 0.8c0.7 0.8 1.9 1.2 3.2 1.2 2.3 0 3.4-1.2 3.4-3.8v-6.8zm-2.6 6.5c-1.5 0-2.6-1.2-2.6-2.8 0-1.7 1.1-2.8 2.6-2.8 1.5 0 2.6 1.1 2.6 2.8 0 1.6-1.1 2.8-2.6 2.8zm9.4-6.5c-1.1 0-2.1 0.4-2.8 1l0.4 0.8c0.6-0.6 1.4-0.9 2.3-0.9 1.3 0 2 0.7 2 2v0.5h-2.2c-2 0-2.7 1-2.7 2.1 0 1.4 1 2.3 2.5 2.3 1.2 0 2-0.5 2.4-1.3v1.2h0.9v-4.8c0-1.9-1-2.9-2.8-2.9zm-0.3 7c-1.1 0-1.7-0.6-1.7-1.5 0-0.8 0.4-1.4 1.7-1.4h2.2v1.3c-0.4 1-1.2 1.6-2.2 1.6zm12-7v1.5c-0.6-1-1.5-1.5-2.7-1.5-2 0-3.5 1.5-3.5 3.7 0 2.2 1.5 3.7 3.5 3.7 1.1 0 2.1-0.5 2.7-1.5v1c0 1.9-0.8 2.8-2.6 2.8-1 0-2-0.4-2.7-1.1l-0.4 0.8c0.7 0.8 1.9 1.2 3.2 1.2 2.2 0 3.4-1.2 3.4-3.8v-6.8zm-2.6 6.5c-1.5 0-2.6-1.2-2.6-2.8 0-1.7 1.1-2.8 2.6-2.8 1.5 0 2.6 1.1 2.6 2.8 0 1.6-1.1 2.8-2.6 2.8zm13-2.6c0-2.3-1.4-3.9-3.3-3.9-2 0-3.4 1.6-3.4 3.9 0 2.2 1.5 3.9 3.6 3.9 1.1 0 2-0.5 2.7-1.3l-0.6-0.7c-0.5 0.7-1.2 1-2.1 1-1.5 0-2.6-1-2.7-2.6h5.8c0-0.1 0-0.2 0-0.3zm-3.3-3c1.3 0 2.3 1 2.4 2.5h-4.9c0.1-1.5 1.1-2.5 2.5-2.5zm-448.6 21.3c-1.1 0-2.1 0.5-2.7 1.6v-1.6h-0.8v10.5h0.9v-4.2c0.6 0.9 1.5 1.5 2.6 1.5 2 0 3.4-1.6 3.4-3.9 0-2.3-1.4-3.9-3.4-3.9zm-0.1 6.9c-1.4 0-2.5-1.2-2.5-3 0-1.8 1.1-3 2.5-3 1.5 0 2.6 1.2 2.6 3 0 1.8-1.1 3-2.6 3zm8.7-6.9c-1.1 0-2.1 0.4-2.8 1l0.4 0.8c0.6-0.6 1.4-0.9 2.3-0.9 1.3 0 1.9 0.7 1.9 2v0.5h-2.2c-1.9 0-2.6 1-2.6 2.1 0 1.4 0.9 2.3 2.5 2.3 1.1 0 2-0.5 2.4-1.3v1.2h0.9v-4.7c0-2-1-3-2.8-3zm-0.4 7c-1.1 0-1.7-0.6-1.7-1.5 0-0.8 0.4-1.4 1.8-1.4h2.1v1.3c-0.3 1-1.1 1.6-2.2 1.6zm7.5-5.5v-1.5h-0.9v7.7h0.9v-3.9c0-1.8 0.9-2.8 2.3-2.8 0.1 0 0.2 0 0.2 0v-1c-1.2 0-2.1 0.5-2.5 1.5zm8.7 5c-0.3 0.2-0.7 0.4-1 0.4-0.8 0-1.2-0.5-1.2-1.4v-4.6h2.1v-0.9h-2.1v-1.6h-1v1.6h-1.2v0.9h1.2v4.6c0 1.5 0.8 2.3 2.1 2.3 0.5 0 1-0.2 1.4-0.6zm3.4-8.1c0.4 0 0.7-0.3 0.7-0.7 0-0.4-0.3-0.8-0.7-0.8-0.4 0-0.7 0.4-0.7 0.8 0 0.4 0.3 0.7 0.7 0.7zm-0.5 9.3h0.9v-7.6h-0.9zm7.3 0.1c1.1 0 2.1-0.6 2.7-1.6l-0.7-0.5c-0.5 0.8-1.2 1.1-2 1.1-1.6 0-2.7-1.1-2.7-2.9 0-1.8 1.1-3 2.7-3 0.8 0 1.5 0.3 2 1.1l0.7-0.5c-0.6-1-1.6-1.5-2.7-1.5-2.1 0-3.6 1.6-3.6 3.9 0 2.2 1.5 3.9 3.6 3.9zm5.8-9.4c0.4 0 0.7-0.4 0.7-0.8 0-0.4-0.3-0.7-0.7-0.7-0.4 0-0.7 0.3-0.7 0.7 0 0.4 0.3 0.8 0.7 0.8zm-0.5 9.3h1v-7.7h-1zm8-7.7c-1.2 0-2.1 0.6-2.7 1.6v-1.5h-0.9v10.5h1v-4.3c0.5 1 1.5 1.5 2.6 1.5 2 0 3.4-1.6 3.4-3.9 0-2.3-1.4-3.9-3.4-3.9zm-0.1 6.9c-1.4 0-2.5-1.2-2.5-3 0-1.8 1.1-3 2.5-3 1.5 0 2.6 1.2 2.6 3 0 1.8-1.1 3-2.6 3zm8.7-6.9c-1.1 0-2.1 0.4-2.8 1.1l0.4 0.7c0.5-0.5 1.4-0.9 2.3-0.9 1.3 0 1.9 0.7 1.9 2v0.5h-2.2c-1.9 0-2.6 1-2.6 2.2 0 1.3 0.9 2.2 2.5 2.2 1.1 0 1.9-0.5 2.4-1.3v1.2h0.9v-4.7c0-2-1.1-3-2.8-3zm-0.4 7c-1.1 0-1.7-0.6-1.7-1.5 0-0.7 0.4-1.3 1.8-1.3h2.1v1.2c-0.3 1-1.1 1.6-2.2 1.6zm10.1-7c-1.2 0-2.2 0.6-2.7 1.5v-1.4h-0.8v7.6h0.9v-4c0-1.7 0.9-2.7 2.4-2.7 1.3 0 2.1 0.8 2.1 2.4v4.3h0.9v-4.4c0-2.2-1.2-3.3-2.8-3.3zm9.5 6.5c-0.3 0.3-0.7 0.4-1 0.4-0.8 0-1.2-0.5-1.2-1.4v-4.5h2.1v-0.9h-2.1v-1.7h-1v1.7h-1.2v0.9h1.2v4.6c0 1.4 0.8 2.2 2.1 2.2 0.5 0 1-0.2 1.4-0.5zm4.8 1.2c1.7 0 2.8-0.8 2.8-2.1 0-3-4.5-1.4-4.5-3.5 0-0.7 0.6-1.3 1.8-1.3 0.7 0 1.5 0.2 2.1 0.7l0.4-0.8c-0.6-0.5-1.6-0.7-2.5-0.7-1.7 0-2.7 0.9-2.7 2.1 0 3.1 4.5 1.5 4.5 3.5 0 0.7-0.6 1.2-1.9 1.2-1 0-1.9-0.3-2.4-0.8l-0.4 0.8c0.5 0.5 1.6 0.9 2.8 0.9zm10.2-9.4c0.4 0 0.6-0.3 0.6-0.7 0-0.4-0.3-0.7-0.6-0.7-0.4 0-0.7 0.3-0.7 0.7 0 0.4 0.3 0.7 0.7 0.7zm-0.5 9.4h0.9v-7.7h-0.9zm7.9-7.7c-1.2 0-2.1 0.5-2.6 1.5v-1.4h-0.9v7.6h0.9v-4c0-1.7 0.9-2.8 2.4-2.8 1.3 0 2.1 0.9 2.1 2.5v4.3h0.9v-4.4c0-2.2-1.1-3.3-2.8-3.3zm19 6.5c-0.3 0.3-0.6 0.4-1 0.4-0.8 0-1.2-0.5-1.2-1.4v-4.6h2.1v-0.8h-2.1v-1.7h-0.9v1.7h-1.3v0.8h1.3v4.7c0 1.4 0.7 2.2 2 2.2 0.5 0 1.1-0.2 1.4-0.5zm3.8-5v-1.5h-0.9v7.7h0.9v-3.9c0-1.8 0.9-2.9 2.4-2.9 0 0 0.1 0.1 0.2 0.1v-1.1c-1.3 0-2.2 0.6-2.6 1.6zm7.5-1.6c-1.1 0-2.1 0.4-2.8 1.1l0.5 0.8c0.5-0.6 1.4-0.9 2.2-0.9 1.3 0 2 0.7 2 2v0.4h-2.2c-2 0-2.7 1-2.7 2.2 0 1.3 1 2.2 2.6 2.2 1.1 0 1.9-0.4 2.3-1.2v1.2h0.9v-4.8c0-2-1-3-2.8-3zm-0.3 7c-1.1 0-1.7-0.5-1.7-1.4 0-0.8 0.4-1.4 1.7-1.4h2.2v1.3c-0.4 1-1.1 1.5-2.2 1.5zm10-7c-1.2 0-2.1 0.6-2.6 1.5v-1.4h-0.9v7.7h1v-4.1c0-1.7 0.9-2.7 2.4-2.7 1.3 0 2 0.8 2 2.4v4.4h1v-4.5c0-2.2-1.2-3.3-2.9-3.3zm8.1 7.8c1.8 0 2.9-0.8 2.9-2.1 0-3-4.5-1.4-4.5-3.5 0-0.7 0.5-1.3 1.8-1.3 0.7 0 1.4 0.2 2 0.7l0.4-0.8c-0.6-0.5-1.5-0.8-2.4-0.8-1.8 0-2.7 1-2.7 2.2 0 3.1 4.4 1.5 4.4 3.5 0 0.7-0.5 1.2-1.8 1.2-1 0-1.9-0.3-2.5-0.8l-0.4 0.8c0.6 0.5 1.7 0.9 2.8 0.9zm7.7-10c0.4 0 0.8 0.1 1 0.3l0.4-0.7c-0.4-0.3-0.9-0.5-1.4-0.5-1.4 0-2.1 0.9-2.1 2.3v0.9h-1.2v0.9h1.2v6.8h0.9v-6.8h2.1v-0.9h-2.1v-0.9c0-0.9 0.4-1.4 1.2-1.4zm5.7 10c2.1 0 3.5-1.6 3.5-3.9 0-2.2-1.4-3.9-3.5-3.9-2 0-3.5 1.7-3.5 3.9 0 2.3 1.5 3.9 3.5 3.9zm0-0.9c-1.4 0-2.5-1.2-2.5-3 0-1.8 1.1-2.9 2.5-2.9 1.5 0 2.6 1.1 2.6 2.9 0 1.8-1.1 3-2.6 3zm7.2-5.3v-1.5h-0.9v7.7h0.9v-3.9c0-1.8 0.9-2.9 2.4-2.9 0 0 0.1 0.1 0.2 0.1v-1.1c-1.3 0-2.2 0.6-2.6 1.6zm13.7-1.6c-1.2 0-2.2 0.7-2.7 1.7-0.4-1.1-1.3-1.7-2.4-1.7-1.2 0-2.1 0.6-2.6 1.5v-1.4h-0.9v7.7h1v-4.1c0-1.7 0.9-2.7 2.3-2.7 1.2 0 2 0.8 2 2.4v4.4h0.9v-4.1c0-1.7 0.9-2.7 2.3-2.7 1.2 0 2 0.8 2 2.4v4.4h0.9v-4.5c0-2.2-1.1-3.3-2.8-3.3zm8.6 0c-1.1 0-2.1 0.4-2.8 1.1l0.4 0.8c0.6-0.6 1.4-0.9 2.3-0.9 1.3 0 2 0.7 2 2v0.4h-2.2c-2 0-2.7 1-2.7 2.2 0 1.3 1 2.2 2.5 2.2 1.2 0 2-0.4 2.4-1.2v1.2h0.9v-4.8c0-2-1-3-2.8-3zm-0.3 7c-1.1 0-1.8-0.5-1.8-1.4 0-0.8 0.5-1.4 1.8-1.4h2.2v1.3c-0.4 1-1.2 1.5-2.2 1.5zm9.8-0.4c-0.3 0.2-0.6 0.3-1 0.3-0.8 0-1.2-0.4-1.2-1.4v-4.5h2.1v-0.9h-2.1v-1.7h-0.9v1.7h-1.3v0.9h1.3v4.6c0 1.4 0.7 2.2 2 2.2 0.5 0 1.1-0.1 1.4-0.5zm3.4-8.1c0.4 0 0.7-0.4 0.7-0.8 0-0.4-0.3-0.7-0.7-0.7-0.4 0-0.7 0.3-0.7 0.7 0 0.4 0.3 0.8 0.7 0.8zm-0.5 9.3h0.9v-7.6h-0.9zm9.3-7.7l-2.6 6.5-2.6-6.5h-1l3.1 7.7h0.9l3.1-7.7zm8.9 3.8c0-2.3-1.4-3.9-3.3-3.9-2 0-3.4 1.7-3.4 3.9 0 2.3 1.5 3.9 3.6 3.9 1.1 0 2.1-0.4 2.7-1.2l-0.5-0.7c-0.6 0.7-1.3 1-2.1 1-1.6 0-2.7-1.1-2.8-2.7h5.8c0-0.1 0-0.2 0-0.3zm-3.3-3c1.3 0 2.3 1.1 2.4 2.6h-4.9c0.2-1.5 1.1-2.6 2.5-2.6zm15.6 6.9h0.9v-10.8h-0.9zm10.4-3.9c0-2.3-1.4-3.9-3.4-3.9-1.9 0-3.3 1.7-3.3 3.9 0 2.3 1.4 3.9 3.6 3.9 1.1 0 2-0.4 2.6-1.2l-0.5-0.7c-0.5 0.7-1.3 1-2.1 1-1.5 0-2.6-1.1-2.7-2.7h5.8c0-0.1 0-0.2 0-0.3zm-3.4-3c1.4 0 2.4 1.1 2.5 2.6h-4.9c0.1-1.5 1.1-2.6 2.4-2.6zm8.4-0.9c-1.1 0-2.1 0.4-2.8 1.1l0.4 0.7c0.5-0.5 1.4-0.9 2.3-0.9 1.3 0 1.9 0.8 1.9 2.1v0.4h-2.2c-1.9 0-2.6 1-2.6 2.2 0 1.3 0.9 2.2 2.5 2.2 1.1 0 1.9-0.5 2.4-1.2v1.2h0.8v-4.8c0-2-1-3-2.7-3zm-0.4 7c-1.1 0-1.7-0.5-1.7-1.4 0-0.8 0.4-1.4 1.8-1.4h2.1v1.3c-0.3 1-1.1 1.5-2.2 1.5zm7.4-5.4v-1.5h-0.9v7.7h1v-3.9c0-1.8 0.9-2.9 2.3-2.9 0.1 0 0.1 0 0.2 0v-1c-1.3 0-2.1 0.6-2.6 1.6zm8.7-1.6c-1.2 0-2.1 0.6-2.6 1.5v-1.4h-0.9v7.7h0.9v-4.1c0-1.7 0.9-2.7 2.4-2.7 1.3 0 2.1 0.8 2.1 2.4v4.4h0.9v-4.5c0-2.2-1.1-3.3-2.8-3.3zm6.7-1.6c0.4 0 0.7-0.3 0.7-0.7 0-0.4-0.3-0.7-0.7-0.7-0.4 0-0.7 0.3-0.7 0.7 0 0.4 0.3 0.7 0.7 0.7zm-0.5 9.4h0.9v-7.7h-0.9zm7.9-7.7c-1.2 0-2.1 0.5-2.6 1.5v-1.5h-0.9v7.7h0.9v-4c0-1.8 1-2.8 2.4-2.8 1.4 0 2.1 0.8 2.1 2.5v4.3h0.9v-4.4c0-2.2-1.1-3.3-2.8-3.3zm11.8 0v1.5c-0.6-1-1.6-1.5-2.8-1.5-1.9 0-3.4 1.5-3.4 3.7 0 2.2 1.5 3.7 3.4 3.7 1.2 0 2.1-0.5 2.7-1.5v1c0 1.9-0.8 2.8-2.5 2.8-1.1 0-2.1-0.4-2.7-1.1l-0.5 0.8c0.7 0.8 1.9 1.2 3.2 1.2 2.3 0 3.4-1.2 3.4-3.8v-6.8zm-2.6 6.5c-1.5 0-2.6-1.2-2.6-2.8 0-1.7 1.1-2.8 2.6-2.8 1.5 0 2.6 1.1 2.6 2.8 0 1.6-1.1 2.8-2.6 2.8zm22.5-2.6c0-2.3-1.4-3.9-3.3-3.9-2 0-3.4 1.6-3.4 3.9 0 2.2 1.5 3.9 3.6 3.9 1.1 0 2.1-0.5 2.7-1.3l-0.6-0.6c-0.5 0.6-1.2 1-2.1 1-1.5 0-2.6-1.1-2.7-2.7h5.8c0-0.1 0-0.2 0-0.3zm-3.3-3c1.3 0 2.3 1 2.4 2.5h-4.9c0.1-1.5 1.1-2.5 2.5-2.5zm11.3 6.8l-2.7-3.9 2.6-3.8h-1l-2.1 3-2.1-3h-1l2.6 3.8-2.8 3.9h1.1l2.2-3.2 2.2 3.2zm5.9-7.7c-1.1 0-2.1 0.5-2.6 1.6v-1.6h-0.9v10.5h0.9v-4.2c0.6 0.9 1.5 1.5 2.6 1.5 2 0 3.5-1.6 3.5-3.9 0-2.3-1.5-3.9-3.5-3.9zm0 6.9c-1.5 0-2.6-1.2-2.6-3 0-1.8 1.1-3 2.6-3 1.4 0 2.5 1.2 2.5 3 0 1.8-1.1 3-2.5 3zm12.2-3c0-2.3-1.4-3.9-3.3-3.9-1.9 0-3.4 1.6-3.4 3.9 0 2.2 1.5 3.9 3.7 3.9 1 0 2-0.5 2.6-1.3l-0.5-0.6c-0.5 0.6-1.3 1-2.1 1-1.5 0-2.6-1.1-2.7-2.7h5.7c0-0.1 0-0.2 0-0.3zm-3.3-3c1.4 0 2.3 1 2.5 2.5h-4.9c0.1-1.5 1.1-2.5 2.4-2.5zm7 0.6v-1.5h-0.9v7.7h0.9v-3.9c0-1.8 0.9-2.8 2.4-2.8 0 0 0.1 0 0.2 0v-1c-1.3 0-2.2 0.5-2.6 1.5zm5.6-3.1c0.4 0 0.7-0.4 0.7-0.8 0-0.4-0.3-0.7-0.7-0.7-0.4 0-0.7 0.3-0.7 0.7 0 0.4 0.3 0.8 0.7 0.8zm-0.5 9.3h1v-7.7h-1zm10.4-3.8c0-2.3-1.4-3.9-3.3-3.9-1.9 0-3.4 1.7-3.4 3.9 0 2.3 1.5 3.9 3.7 3.9 1 0 2-0.4 2.6-1.2l-0.5-0.7c-0.5 0.7-1.3 1-2.1 1-1.5 0-2.6-1.1-2.7-2.7h5.7c0-0.1 0-0.2 0-0.3zm-3.3-3c1.4 0 2.3 1.1 2.5 2.6h-4.9c0.1-1.5 1.1-2.6 2.4-2.6zm9.6-0.9c-1.2 0-2.1 0.6-2.6 1.5v-1.4h-0.9v7.6h0.9v-4c0-1.7 1-2.7 2.5-2.7 1.3 0 2 0.8 2 2.4v4.3h1v-4.4c0-2.2-1.2-3.3-2.9-3.3zm9.1 7.8c1.2 0 2.2-0.5 2.7-1.5l-0.7-0.5c-0.4 0.8-1.2 1.1-2 1.1-1.5 0-2.6-1.2-2.6-3 0-1.8 1.1-3 2.6-3 0.8 0 1.6 0.4 2 1.2l0.7-0.6c-0.5-1-1.5-1.5-2.7-1.5-2 0-3.5 1.6-3.5 3.9 0 2.3 1.5 3.9 3.5 3.9zm11.3-3.9c0-2.3-1.4-3.9-3.3-3.9-2 0-3.4 1.7-3.4 3.9 0 2.3 1.5 3.9 3.6 3.9 1.1 0 2.1-0.4 2.7-1.2l-0.5-0.7c-0.6 0.7-1.3 1-2.1 1-1.5 0-2.6-1.1-2.8-2.7h5.8c0-0.1 0-0.2 0-0.3zm-3.3-3c1.3 0 2.3 1.1 2.4 2.6h-4.9c0.2-1.5 1.1-2.6 2.5-2.6zm7.9 6.9c1.8 0 2.9-0.8 2.9-2.2 0-2.9-4.5-1.3-4.5-3.4 0-0.7 0.6-1.3 1.8-1.3 0.7 0 1.4 0.2 2 0.7l0.4-0.9c-0.5-0.4-1.5-0.7-2.4-0.7-1.7 0-2.7 1-2.7 2.2 0 3 4.5 1.5 4.5 3.5 0 0.7-0.6 1.2-1.9 1.2-1 0-1.9-0.4-2.4-0.8l-0.5 0.8c0.6 0.5 1.7 0.9 2.8 0.9zm5.6 0c0.3 0 0.7-0.3 0.7-0.8 0-0.4-0.4-0.8-0.7-0.8-0.4 0-0.7 0.4-0.7 0.8 0 0.5 0.3 0.8 0.7 0.8zm9-1v-3.8h4.7v-0.9h-4.7v-3.6h5.3v-0.9h-6.3v10.1h6.5v-0.9zm8.5 0.9h0.9v-10.7h-0.9zm10.4-3.9c0-2.3-1.4-3.9-3.4-3.9-1.9 0-3.3 1.7-3.3 3.9 0 2.3 1.4 3.9 3.6 3.9 1.1 0 2-0.4 2.6-1.2l-0.5-0.7c-0.5 0.7-1.3 1-2.1 1-1.5 0-2.6-1.1-2.7-2.7h5.8c0-0.1 0-0.2 0-0.3zm-3.4-3c1.4 0 2.4 1.1 2.5 2.6h-4.9c0.1-1.5 1.1-2.6 2.4-2.6zm10.9-0.8l-2.6 6.5-2.6-6.5h-1l3.1 7.7h0.9l3.1-7.7zm5.3-0.1c-1.1 0-2.1 0.4-2.8 1.1l0.4 0.7c0.6-0.5 1.4-0.9 2.3-0.9 1.3 0 2 0.8 2 2.1v0.4h-2.2c-2 0-2.7 1-2.7 2.2 0 1.3 1 2.2 2.5 2.2 1.2 0 2-0.5 2.4-1.2v1.2h0.9v-4.8c0-2-1-3-2.8-3zm-0.3 7c-1.1 0-1.8-0.5-1.8-1.4 0-0.8 0.5-1.4 1.8-1.4h2.2v1.3c-0.4 1-1.2 1.5-2.2 1.5zm9.8-0.5c-0.3 0.3-0.6 0.4-1 0.4-0.8 0-1.2-0.5-1.2-1.4v-4.5h2.1v-0.9h-2.1v-1.7h-1v1.7h-1.2v0.9h1.2v4.6c0 1.4 0.8 2.2 2.1 2.2 0.5 0 1.1-0.2 1.4-0.5zm8.7-2.6c0-2.3-1.4-3.9-3.4-3.9-1.9 0-3.3 1.6-3.3 3.9 0 2.2 1.4 3.9 3.6 3.9 1.1 0 2-0.5 2.6-1.3l-0.5-0.7c-0.5 0.7-1.3 1-2.1 1-1.5 0-2.6-1-2.7-2.6h5.8c0-0.1 0-0.2 0-0.3zm-3.4-3c1.4 0 2.4 1 2.5 2.5h-4.9c0.1-1.5 1.1-2.5 2.4-2.5zm-443.9 25.2c0-2.3-1.4-3.9-3.4-3.9-1.9 0-3.3 1.6-3.3 3.9 0 2.2 1.4 3.9 3.6 3.9 1.1 0 2-0.5 2.6-1.3l-0.5-0.7c-0.5 0.7-1.2 1.1-2.1 1.1-1.5 0-2.6-1.1-2.7-2.7h5.8c0-0.1 0-0.2 0-0.3zm-3.4-3c1.4 0 2.4 1 2.5 2.5h-4.9c0.1-1.5 1.1-2.5 2.4-2.5zm11.5-4v4.6c-0.6-1-1.5-1.5-2.6-1.5-2 0-3.4 1.6-3.4 3.9 0 2.3 1.4 3.9 3.4 3.9 1.1 0 2.1-0.6 2.6-1.6v1.5h0.9v-10.8zm-2.5 10c-1.5 0-2.6-1.2-2.6-3 0-1.8 1.1-3 2.6-3 1.4 0 2.5 1.2 2.5 3 0 1.8-1.1 3-2.5 3zm12.2-6.9v4.1c0 1.7-0.9 2.7-2.3 2.7-1.3 0-2.1-0.8-2.1-2.4v-4.4h-0.9v4.5c0 2.2 1.1 3.3 2.9 3.3 1.1 0 2-0.6 2.4-1.5v1.4h0.9v-7.7zm7.3 7.8c1.2 0 2.1-0.6 2.7-1.5l-0.7-0.6c-0.5 0.8-1.2 1.2-2 1.2-1.5 0-2.6-1.2-2.6-3 0-1.8 1.1-3 2.6-3 0.8 0 1.5 0.4 2 1.1l0.7-0.5c-0.6-1-1.5-1.5-2.7-1.5-2.1 0-3.5 1.6-3.5 3.9 0 2.3 1.4 3.9 3.5 3.9zm7.8-7.8c-1.1 0-2.1 0.4-2.8 1l0.4 0.8c0.6-0.6 1.4-0.9 2.3-0.9 1.3 0 2 0.7 2 2v0.5h-2.2c-2 0-2.7 1-2.7 2.1 0 1.4 1 2.3 2.5 2.3 1.2 0 2-0.5 2.4-1.3v1.2h0.9v-4.7c0-2-1-3-2.8-3zm-0.3 7c-1.1 0-1.8-0.6-1.8-1.5 0-0.8 0.5-1.4 1.8-1.4h2.2v1.3c-0.4 1-1.2 1.6-2.2 1.6zm9.8-0.5c-0.3 0.3-0.7 0.4-1 0.4-0.8 0-1.2-0.5-1.2-1.4v-4.6h2.1v-0.9h-2.1v-1.6h-1v1.6h-1.2v0.9h1.2v4.6c0 1.5 0.8 2.3 2.1 2.3 0.5 0 1.1-0.2 1.4-0.6zm3.4-8.1c0.4 0 0.7-0.3 0.7-0.7 0-0.4-0.3-0.8-0.7-0.8-0.4 0-0.7 0.4-0.7 0.8 0 0.4 0.3 0.7 0.7 0.7zm-0.5 9.3h0.9v-7.6h-0.9zm7.2 0.1c2 0 3.5-1.7 3.5-3.9 0-2.3-1.5-3.9-3.5-3.9-2 0-3.5 1.6-3.5 3.9 0 2.2 1.5 3.9 3.5 3.9zm0-1c-1.4 0-2.5-1.2-2.5-2.9 0-1.8 1.1-3 2.5-3 1.5 0 2.6 1.2 2.6 3 0 1.7-1.1 2.9-2.6 2.9zm9.8-6.8c-1.2 0-2.1 0.5-2.6 1.4v-1.4h-0.9v7.7h0.9v-4c0-1.8 0.9-2.8 2.4-2.8 1.3 0 2.1 0.8 2.1 2.4v4.4h0.9v-4.5c0-2.2-1.1-3.2-2.8-3.2zm19 6.5c-0.3 0.2-0.6 0.4-1 0.4-0.8 0-1.2-0.5-1.2-1.4v-4.6h2.1v-0.9h-2.1v-1.6h-0.9v1.6h-1.3v0.9h1.3v4.6c0 1.4 0.7 2.3 2 2.3 0.5 0 1.1-0.2 1.4-0.6zm6.4-6.5c-1.1 0-2 0.5-2.5 1.4v-4.5h-1v10.8h1v-4c0-1.7 0.9-2.8 2.4-2.8 1.3 0 2 0.9 2 2.5v4.3h1v-4.4c0-2.2-1.2-3.3-2.9-3.3zm7.2 1.6v-1.5h-0.9v7.6h0.9v-3.9c0-1.8 0.9-2.8 2.3-2.8 0.1 0 0.2 0 0.2 0v-1c-1.2 0-2.1 0.6-2.5 1.6zm7.8 6.2c2 0 3.5-1.6 3.5-3.9 0-2.3-1.5-3.9-3.5-3.9-2 0-3.5 1.6-3.5 3.9 0 2.3 1.5 3.9 3.5 3.9zm0-0.9c-1.4 0-2.5-1.2-2.5-3 0-1.8 1.1-3 2.5-3 1.5 0 2.6 1.2 2.6 3 0 1.8-1.1 3-2.6 3zm11.6-6.8v4c0 1.7-0.9 2.8-2.4 2.8-1.3 0-2-0.9-2-2.5v-4.3h-1v4.4c0 2.2 1.2 3.3 2.9 3.3 1.1 0 2-0.5 2.5-1.5v1.4h0.9v-7.6zm9.9 0v1.4c-0.6-1-1.6-1.5-2.7-1.5-2 0-3.5 1.5-3.5 3.7 0 2.2 1.5 3.7 3.5 3.7 1.1 0 2.1-0.5 2.7-1.4v0.9c0 1.9-0.8 2.8-2.6 2.8-1 0-2-0.4-2.7-1l-0.5 0.7c0.8 0.8 2 1.2 3.2 1.2 2.3 0 3.5-1.2 3.5-3.8v-6.7zm-2.6 6.4c-1.6 0-2.6-1.1-2.6-2.8 0-1.6 1-2.8 2.6-2.8 1.5 0 2.6 1.2 2.6 2.8 0 1.7-1.1 2.8-2.6 2.8zm10.5-6.5c-1.2 0-2.1 0.5-2.6 1.4v-4.5h-0.9v10.8h0.9v-4c0-1.7 0.9-2.8 2.4-2.8 1.3 0 2.1 0.9 2.1 2.5v4.3h0.9v-4.4c0-2.2-1.2-3.3-2.8-3.3zm21.7 3.9c0-2.3-1.4-3.9-3.3-3.9-2 0-3.4 1.6-3.4 3.9 0 2.3 1.5 3.9 3.6 3.9 1.1 0 2-0.4 2.7-1.3l-0.6-0.6c-0.5 0.6-1.2 1-2.1 1-1.5 0-2.6-1.1-2.7-2.7h5.8c0-0.1 0-0.2 0-0.3zm-3.3-3c1.3 0 2.3 1.1 2.4 2.5h-4.9c0.1-1.4 1.1-2.5 2.5-2.5zm8.3-3.2c0.4 0 0.8 0.2 1.1 0.4l0.3-0.8c-0.4-0.3-0.9-0.4-1.4-0.4-1.3 0-2.1 0.9-2.1 2.2v1h-1.2v0.8h1.2v6.8h1v-6.8h2v-0.8h-2.1v-0.9c0-1 0.4-1.5 1.2-1.5zm3.2 1.4v1h-1.2v0.8h1.2v6.8h1v-6.8h2.1v-0.8h-2.2v-0.9c0-1 0.5-1.5 1.3-1.5 0.3 0 0.7 0.2 1 0.4l0.3-0.8c-0.4-0.3-0.9-0.4-1.4-0.4-1.3 0-2.1 0.9-2.1 2.2zm5.8-2.2c-0.3 0-0.6 0.4-0.6 0.8 0 0.4 0.3 0.7 0.6 0.7 0.4 0 0.7-0.3 0.7-0.8 0-0.3-0.3-0.7-0.7-0.7zm-0.4 10.8h0.9v-7.6h-0.9zm7.2 0c1.2 0 2.2-0.5 2.7-1.5l-0.7-0.5c-0.5 0.8-1.2 1.1-2 1.1-1.5 0-2.6-1.1-2.6-3 0-1.7 1.1-2.9 2.6-2.9 0.8 0 1.5 0.3 2 1.1l0.7-0.5c-0.5-1-1.5-1.5-2.7-1.5-2 0-3.5 1.6-3.5 3.8 0 2.3 1.5 3.9 3.5 3.9zm5.9-9.4c0.4 0 0.7-0.3 0.7-0.7 0-0.4-0.3-0.7-0.7-0.7-0.4 0-0.7 0.3-0.7 0.7 0 0.4 0.3 0.7 0.7 0.7zm-0.5 9.4h0.9v-7.7h-0.9zm10.4-3.8c0-2.3-1.4-3.9-3.3-3.9-2 0-3.4 1.6-3.4 3.9 0 2.3 1.5 3.9 3.6 3.9 1.1 0 2.1-0.4 2.7-1.3l-0.5-0.6c-0.6 0.6-1.3 1-2.2 1-1.5 0-2.6-1.1-2.7-2.7h5.8c0-0.1 0-0.2 0-0.3zm-3.3-3c1.3 0 2.3 1 2.4 2.5h-4.9c0.2-1.5 1.1-2.5 2.5-2.5zm9.6-0.9c-1.2 0-2.1 0.5-2.6 1.5v-1.4h-0.9v7.6h0.9v-4c0-1.7 0.9-2.8 2.4-2.8 1.3 0 2.1 0.9 2.1 2.5v4.3h0.9v-4.4c0-2.2-1.1-3.3-2.8-3.3zm9.5 6.5c-0.2 0.3-0.6 0.4-1 0.4-0.8 0-1.2-0.5-1.2-1.4v-4.6h2.1v-0.8h-2.1v-1.7h-0.9v1.7h-1.3v0.8h1.3v4.7c0 1.4 0.7 2.2 2 2.2 0.5 0 1.1-0.2 1.4-0.5zm18.4-2.7c0-2.3-1.4-3.8-3.3-3.8-1.9 0-3.4 1.6-3.4 3.8 0 2.3 1.5 3.9 3.6 3.9 1.1 0 2.1-0.4 2.7-1.2l-0.5-0.7c-0.6 0.7-1.3 1-2.1 1-1.5 0-2.6-1-2.7-2.6h5.7c0-0.2 0-0.3 0-0.4zm-3.3-3c1.3 0 2.3 1.1 2.4 2.6h-4.8c0.1-1.5 1.1-2.6 2.4-2.6zm10.8-0.8l-2.6 6.5-2.5-6.5h-1l3 7.7h1l3.1-7.7zm8.9 3.8c0-2.3-1.4-3.8-3.4-3.8-1.9 0-3.3 1.6-3.3 3.8 0 2.3 1.4 3.9 3.6 3.9 1.1 0 2-0.4 2.6-1.2l-0.5-0.7c-0.5 0.7-1.3 1-2.1 1-1.5 0-2.6-1-2.7-2.6h5.8c0-0.2 0-0.3 0-0.4zm-3.4-3c1.4 0 2.4 1.1 2.5 2.6h-4.9c0.1-1.5 1.1-2.6 2.4-2.6zm9.7-0.8c-1.2 0-2.2 0.5-2.7 1.4v-1.4h-0.9v7.7h1v-4.1c0-1.7 0.9-2.7 2.4-2.7 1.3 0 2.1 0.8 2.1 2.4v4.4h0.9v-4.5c0-2.2-1.2-3.2-2.8-3.2zm9.5 6.5c-0.3 0.2-0.7 0.3-1 0.3-0.8 0-1.2-0.4-1.2-1.3v-4.6h2.1v-0.9h-2.1v-1.7h-1v1.7h-1.2v0.9h1.2v4.6c0 1.4 0.8 2.2 2.1 2.2 0.5 0 1-0.1 1.4-0.5zm15.9-6.5c-1.1 0-2.1 0.5-2.6 1.6v-1.5h-0.9v10.4h0.9v-4.2c0.6 1 1.5 1.5 2.6 1.5 2 0 3.5-1.6 3.5-3.9 0-2.3-1.5-3.9-3.5-3.9zm0 6.9c-1.5 0-2.6-1.2-2.6-3 0-1.8 1.1-3 2.6-3 1.4 0 2.5 1.2 2.5 3 0 1.8-1.1 3-2.5 3zm6.2 0.8h1v-10.8h-1zm6.8-7.7c-1.1 0-2.1 0.4-2.8 1l0.5 0.8c0.5-0.6 1.4-0.9 2.2-0.9 1.3 0 2 0.7 2 2v0.5h-2.2c-2 0-2.7 1-2.7 2.2 0 1.3 1 2.2 2.6 2.2 1.1 0 1.9-0.5 2.3-1.3v1.2h0.9v-4.7c0-2-1-3-2.8-3zm-0.3 7c-1.1 0-1.7-0.6-1.7-1.5 0-0.8 0.4-1.3 1.7-1.3h2.2v1.2c-0.4 1-1.1 1.6-2.2 1.6zm10-7c-1.2 0-2.1 0.5-2.6 1.5v-1.4h-0.9v7.6h1v-4c0-1.8 0.9-2.8 2.4-2.8 1.3 0 2 0.9 2 2.5v4.3h1v-4.4c0-2.2-1.2-3.3-2.9-3.3zm9.8 0c-1.2 0-2.1 0.5-2.6 1.5v-1.4h-0.9v7.6h0.9v-4c0-1.8 0.9-2.8 2.4-2.8 1.3 0 2.1 0.9 2.1 2.5v4.3h0.9v-4.4c0-2.2-1.2-3.3-2.8-3.3zm6.7-1.6c0.4 0 0.7-0.4 0.7-0.8 0-0.4-0.3-0.7-0.7-0.7-0.4 0-0.7 0.3-0.7 0.7 0 0.4 0.3 0.8 0.7 0.8zm-0.5 9.3h0.9v-7.6h-0.9zm7.9-7.8c-1.2 0-2.1 0.6-2.6 1.5v-1.4h-0.9v7.7h0.9v-4.1c0-1.7 1-2.7 2.4-2.7 1.3 0 2.1 0.8 2.1 2.4v4.4h0.9v-4.5c0-2.2-1.1-3.3-2.8-3.3zm11.7 0.1v1.5c-0.5-1-1.5-1.6-2.7-1.6-1.9 0-3.4 1.5-3.4 3.7 0 2.2 1.5 3.8 3.4 3.8 1.2 0 2.1-0.5 2.7-1.5v1c0 1.8-0.8 2.7-2.5 2.7-1.1 0-2.1-0.4-2.7-1l-0.5 0.8c0.7 0.7 1.9 1.2 3.2 1.2 2.3 0 3.4-1.2 3.4-3.9v-6.7zm-2.6 6.4c-1.5 0-2.6-1.1-2.6-2.8 0-1.6 1.1-2.8 2.6-2.8 1.5 0 2.6 1.2 2.6 2.8 0 1.7-1.1 2.8-2.6 2.8zm7.1-0.3c-0.4 0-0.7 0.4-0.7 0.8 0 0.4 0.2 0.7 0.5 0.8l-0.5 2.1h0.7l0.5-2c0.2-0.4 0.2-0.6 0.2-0.9 0-0.4-0.3-0.8-0.7-0.8zm16.5-6.2c-1.3 0-2.3 0.7-2.8 1.7-0.4-1.1-1.3-1.7-2.4-1.7-1.2 0-2.1 0.6-2.5 1.5v-1.4h-0.9v7.7h0.9v-4.1c0-1.7 0.9-2.7 2.3-2.7 1.3 0 2 0.8 2 2.4v4.4h0.9v-4.1c0-1.7 0.9-2.7 2.3-2.7 1.3 0 2 0.8 2 2.4v4.4h0.9v-4.5c0-2.2-1.1-3.3-2.7-3.3zm8.5 0c-1 0-2.1 0.4-2.8 1.1l0.5 0.7c0.5-0.5 1.4-0.9 2.2-0.9 1.3 0 2 0.8 2 2.1v0.4h-2.2c-2 0-2.6 1-2.6 2.2 0 1.3 0.9 2.2 2.5 2.2 1.1 0 1.9-0.5 2.3-1.2v1.2h0.9v-4.8c0-2-1-3-2.8-3zm-0.3 7c-1.1 0-1.7-0.5-1.7-1.4 0-0.8 0.4-1.4 1.7-1.4h2.2v1.3c-0.4 1-1.1 1.5-2.2 1.5zm10-7c-1.2 0-2.1 0.6-2.6 1.5v-1.4h-0.9v7.7h1v-4.1c0-1.7 0.9-2.7 2.4-2.7 1.3 0 2 0.8 2 2.4v4.4h1v-4.5c0-2.2-1.2-3.3-2.9-3.3zm8.7 0c-1.1 0-2.1 0.4-2.8 1.1l0.4 0.7c0.6-0.5 1.4-0.9 2.3-0.9 1.3 0 1.9 0.8 1.9 2.1v0.4h-2.2c-1.9 0-2.6 1-2.6 2.2 0 1.3 0.9 2.2 2.5 2.2 1.1 0 2-0.5 2.4-1.2v1.2h0.9v-4.8c0-2-1-3-2.8-3zm-0.4 7c-1.1 0-1.7-0.5-1.7-1.4 0-0.8 0.4-1.4 1.8-1.4h2.1v1.3c-0.3 1-1.1 1.5-2.2 1.5zm12.1-6.9v1.5c-0.6-1-1.6-1.6-2.7-1.6-2 0-3.5 1.5-3.5 3.7 0 2.2 1.5 3.8 3.5 3.8 1.1 0 2.1-0.5 2.6-1.5v1c0 1.8-0.8 2.7-2.5 2.7-1.1 0-2.1-0.4-2.7-1l-0.5 0.8c0.7 0.7 2 1.2 3.2 1.2 2.3 0 3.5-1.2 3.5-3.9v-6.7zm-2.7 6.4c-1.5 0-2.6-1.1-2.6-2.8 0-1.6 1.1-2.8 2.6-2.8 1.6 0 2.7 1.2 2.7 2.8 0 1.7-1.1 2.8-2.7 2.8zm13-2.6c0-2.3-1.4-3.9-3.3-3.9-1.9 0-3.4 1.7-3.4 3.9 0 2.3 1.5 3.9 3.7 3.9 1 0 2-0.4 2.6-1.2l-0.5-0.7c-0.5 0.7-1.3 1-2.1 1-1.5 0-2.6-1.1-2.7-2.7h5.7c0-0.1 0-0.2 0-0.3zm-3.3-3c1.4 0 2.3 1.1 2.5 2.6h-4.9c0.1-1.5 1.1-2.6 2.4-2.6zm14.7-0.9c-1.2 0-2.2 0.7-2.7 1.7-0.4-1.1-1.3-1.7-2.5-1.7-1.1 0-2 0.6-2.5 1.5v-1.4h-0.9v7.7h1v-4.1c0-1.7 0.9-2.7 2.3-2.7 1.2 0 1.9 0.8 1.9 2.4v4.4h1v-4.1c0-1.7 0.9-2.7 2.3-2.7 1.2 0 2 0.8 2 2.4v4.4h0.9v-4.5c0-2.2-1.1-3.3-2.8-3.3zm12.2 3.9c0-2.3-1.4-3.9-3.3-3.9-2 0-3.4 1.7-3.4 3.9 0 2.3 1.5 3.9 3.6 3.9 1.1 0 2.1-0.4 2.7-1.2l-0.5-0.7c-0.6 0.7-1.3 1-2.1 1-1.5 0-2.6-1.1-2.8-2.7h5.8c0-0.1 0-0.2 0-0.3zm-3.3-3c1.3 0 2.3 1.1 2.4 2.6h-4.9c0.2-1.5 1.1-2.6 2.5-2.6zm9.6-0.9c-1.2 0-2.1 0.6-2.6 1.5v-1.4h-0.9v7.7h0.9v-4.1c0-1.7 1-2.7 2.4-2.7 1.3 0 2.1 0.8 2.1 2.4v4.4h0.9v-4.5c0-2.2-1.1-3.3-2.8-3.3zm9.5 6.5c-0.2 0.3-0.6 0.4-1 0.4-0.8 0-1.2-0.5-1.2-1.4v-4.5h2.1v-0.9h-2.1v-1.7h-0.9v1.7h-1.2v0.9h1.2v4.6c0 1.4 0.7 2.2 2 2.2 0.5 0 1.1-0.1 1.5-0.5zm-443 22.2c-0.3 0.3-0.7 0.4-1 0.4-0.8 0-1.2-0.5-1.2-1.4v-4.6h2.1v-0.9h-2.1v-1.6h-1v1.6h-1.2v0.9h1.2v4.6c0 1.5 0.8 2.3 2.1 2.3 0.5 0 1-0.2 1.4-0.6zm5.5 1.3c2 0 3.5-1.6 3.5-3.9 0-2.3-1.5-3.9-3.5-3.9-2.1 0-3.5 1.6-3.5 3.9 0 2.3 1.4 3.9 3.5 3.9zm0-0.9c-1.5 0-2.6-1.2-2.6-3 0-1.8 1.1-3 2.6-3 1.4 0 2.5 1.2 2.5 3 0 1.8-1.1 3-2.5 3zm9 0.9c2.1 0 3.5-1.6 3.5-3.9 0-2.3-1.4-3.9-3.5-3.9-2 0-3.5 1.6-3.5 3.9 0 2.3 1.5 3.9 3.5 3.9zm0-0.9c-1.4 0-2.5-1.2-2.5-3 0-1.8 1.1-3 2.5-3 1.5 0 2.6 1.2 2.6 3 0 1.8-1.1 3-2.6 3zm6.3 0.8h0.9v-10.8h-0.9zm6.3 0.1c1.8 0 2.8-0.8 2.8-2.2 0-2.9-4.5-1.3-4.5-3.4 0-0.7 0.6-1.3 1.8-1.3 0.7 0 1.5 0.2 2.1 0.7l0.4-0.9c-0.6-0.4-1.6-0.7-2.5-0.7-1.7 0-2.7 1-2.7 2.2 0 3 4.5 1.5 4.5 3.5 0 0.7-0.6 1.2-1.9 1.2-0.9 0-1.9-0.4-2.4-0.8l-0.4 0.8c0.5 0.5 1.6 0.9 2.8 0.9zm5.5-1.6c-0.4 0-0.7 0.4-0.7 0.8 0 0.4 0.2 0.7 0.5 0.8l-0.5 2.1h0.7l0.5-2c0.1-0.4 0.2-0.6 0.2-0.9 0-0.4-0.3-0.8-0.7-0.8zm10.3-6.2c-1.1 0-2.2 0.4-2.9 1.1l0.5 0.7c0.5-0.5 1.4-0.9 2.3-0.9 1.2 0 1.9 0.7 1.9 2.1v0.4h-2.2c-2 0-2.6 1-2.6 2.2 0 1.3 0.9 2.2 2.5 2.2 1.1 0 1.9-0.5 2.3-1.2v1.1h0.9v-4.7c0-2-1-3-2.7-3zm-0.4 7c-1.1 0-1.7-0.5-1.7-1.4 0-0.8 0.4-1.4 1.7-1.4h2.2v1.2c-0.4 1.1-1.1 1.6-2.2 1.6zm10.1-7c-1.2 0-2.2 0.6-2.7 1.5v-1.4h-0.9v7.6h1v-4c0-1.7 0.9-2.7 2.4-2.7 1.3 0 2 0.8 2 2.4v4.3h1v-4.4c0-2.2-1.2-3.3-2.8-3.3zm11.6-3.1v4.6c-0.6-0.9-1.6-1.5-2.7-1.5-1.9 0-3.4 1.6-3.4 3.9 0 2.3 1.5 3.9 3.4 3.9 1.2 0 2.1-0.5 2.7-1.6v1.5h0.9v-10.8zm-2.5 10c-1.5 0-2.6-1.2-2.6-3 0-1.8 1.1-3 2.6-3 1.4 0 2.5 1.2 2.5 3 0 1.8-1.1 3-2.5 3zm16.5-6.8v4c0 1.8-0.9 2.8-2.4 2.8-1.3 0-2-0.8-2-2.5v-4.3h-1v4.4c0 2.2 1.2 3.3 2.9 3.3 1.1 0 2-0.5 2.5-1.5v1.4h0.9v-7.6zm7.9-0.1c-1.2 0-2.1 0.6-2.6 1.5v-1.4h-0.9v7.6h0.9v-4c0-1.7 1-2.7 2.4-2.7 1.4 0 2.1 0.8 2.1 2.4v4.3h0.9v-4.4c0-2.2-1.1-3.3-2.8-3.3zm9.8 0c-1.1 0-2.1 0.6-2.7 1.6v-1.5h-0.9v10.5h1v-4.3c0.6 1 1.5 1.5 2.6 1.5 2 0 3.4-1.6 3.4-3.9 0-2.3-1.4-3.9-3.4-3.9zm-0.1 6.9c-1.4 0-2.5-1.2-2.5-3 0-1.8 1.1-3 2.5-3 1.5 0 2.6 1.2 2.6 3 0 1.8-1.1 3-2.6 3zm8.7-6.9c-1.1 0-2.1 0.4-2.8 1.1l0.4 0.7c0.5-0.5 1.4-0.9 2.3-0.9 1.3 0 1.9 0.7 1.9 2.1v0.4h-2.2c-1.9 0-2.6 1-2.6 2.2 0 1.3 0.9 2.2 2.5 2.2 1.1 0 1.9-0.5 2.4-1.2v1.1h0.9v-4.7c0-2-1.1-3-2.8-3zm-0.4 7c-1.1 0-1.7-0.5-1.7-1.4 0-0.8 0.4-1.4 1.8-1.4h2.1v1.2c-0.3 1.1-1.1 1.6-2.2 1.6zm7.4-5.4v-1.5h-0.8v7.6h0.9v-3.9c0-1.8 0.9-2.8 2.3-2.8 0.1 0 0.1 0 0.2 0v-1c-1.2 0-2.1 0.6-2.6 1.6zm7.6-1.6c-1.1 0-2.1 0.4-2.8 1.1l0.4 0.7c0.6-0.5 1.4-0.9 2.3-0.9 1.3 0 1.9 0.7 1.9 2.1v0.4h-2.2c-1.9 0-2.6 1-2.6 2.2 0 1.3 0.9 2.2 2.5 2.2 1.1 0 2-0.5 2.4-1.2v1.1h0.9v-4.7c0-2-1-3-2.8-3zm-0.4 7c-1.1 0-1.7-0.5-1.7-1.4 0-0.8 0.4-1.4 1.8-1.4h2.1v1.2c-0.3 1.1-1.1 1.6-2.2 1.6zm6.6 0.7h0.9v-10.8h-0.9zm4.4 0h0.9v-10.7h-0.9zm10.4-3.9c0-2.3-1.4-3.9-3.4-3.9-1.9 0-3.3 1.7-3.3 3.9 0 2.3 1.4 3.9 3.6 3.9 1.1 0 2-0.4 2.6-1.2l-0.5-0.7c-0.5 0.7-1.3 1-2.1 1-1.5 0-2.6-1.1-2.7-2.7h5.8c0-0.1 0-0.2 0-0.3zm-3.4-3c1.4 0 2.4 1.1 2.5 2.6h-4.9c0.1-1.5 1.1-2.6 2.4-2.6zm6.1 6.9h1v-10.8h-1zm10.4-3.9c0-2.3-1.4-3.9-3.3-3.9-1.9 0-3.4 1.7-3.4 3.9 0 2.3 1.5 3.9 3.7 3.9 1 0 2-0.4 2.6-1.2l-0.5-0.7c-0.5 0.7-1.3 1-2.1 1-1.5 0-2.6-1-2.7-2.6h5.7c0-0.2 0-0.3 0-0.4zm-3.3-3c1.4 0 2.3 1.1 2.5 2.6h-4.9c0.1-1.5 1.1-2.6 2.4-2.6zm11.5-3.9v4.6c-0.6-1-1.6-1.6-2.7-1.6-1.9 0-3.4 1.6-3.4 3.9 0 2.3 1.5 3.9 3.4 3.9 1.2 0 2.1-0.5 2.7-1.6v1.6h0.9v-10.8zm-2.5 9.9c-1.5 0-2.6-1.2-2.6-3 0-1.8 1.1-3 2.6-3 1.4 0 2.5 1.2 2.5 3 0 1.8-1.1 3-2.5 3zm21.7-6.8v4c0 1.8-1 2.8-2.4 2.8-1.3 0-2.1-0.8-2.1-2.5v-4.3h-0.9v4.4c0 2.2 1.2 3.3 2.9 3.3 1.1 0 2-0.5 2.5-1.4v1.4h0.9v-7.7zm6.2 7.7c1.8 0 2.9-0.8 2.9-2.2 0-2.9-4.5-1.3-4.5-3.4 0-0.7 0.6-1.3 1.8-1.3 0.7 0 1.4 0.2 2 0.7l0.4-0.8c-0.5-0.5-1.5-0.8-2.4-0.8-1.7 0-2.7 1-2.7 2.2 0 3.1 4.4 1.5 4.4 3.5 0 0.7-0.5 1.2-1.8 1.2-1 0-1.9-0.4-2.4-0.8l-0.5 0.8c0.6 0.5 1.7 0.9 2.8 0.9zm11.5-3.9c0-2.3-1.4-3.9-3.4-3.9-1.9 0-3.3 1.7-3.3 3.9 0 2.3 1.4 3.9 3.6 3.9 1.1 0 2-0.4 2.6-1.2l-0.5-0.7c-0.5 0.7-1.2 1-2.1 1-1.5 0-2.6-1-2.7-2.6h5.8c0-0.2 0-0.3 0-0.4zm-3.4-3c1.4 0 2.4 1.1 2.5 2.6h-4.9c0.1-1.5 1.1-2.6 2.4-2.6zm7 0.7v-1.5h-0.9v7.7h1v-3.9c0-1.8 0.9-2.9 2.3-2.9 0.1 0 0.1 0 0.2 0v-1c-1.3 0-2.1 0.6-2.6 1.6zm20.8 2.3c0-2.3-1.4-3.9-3.4-3.9-1.9 0-3.3 1.7-3.3 3.9 0 2.3 1.4 3.9 3.6 3.9 1.1 0 2-0.4 2.6-1.2l-0.5-0.7c-0.5 0.7-1.3 1-2.1 1-1.5 0-2.6-1-2.7-2.6h5.8c0-0.2 0-0.3 0-0.4zm-3.4-3c1.4 0 2.4 1.1 2.5 2.6h-4.9c0.1-1.5 1.1-2.6 2.4-2.6zm11.4 6.9l-2.8-4 2.6-3.7h-1l-2.1 3-2-3h-1.1l2.6 3.7-2.7 4h1l2.2-3.2 2.2 3.2zm6-7.8c-1.1 0-2.1 0.6-2.7 1.6v-1.5h-0.9v10.5h1v-4.3c0.6 1 1.5 1.5 2.6 1.5 2 0 3.4-1.5 3.4-3.9 0-2.3-1.4-3.9-3.4-3.9zm-0.1 6.9c-1.4 0-2.5-1.2-2.5-3 0-1.7 1.1-3 2.5-3 1.5 0 2.6 1.3 2.6 3 0 1.8-1.1 3-2.6 3zm12.3-3c0-2.3-1.4-3.9-3.3-3.9-2 0-3.4 1.7-3.4 3.9 0 2.3 1.5 3.9 3.6 3.9 1.1 0 2.1-0.4 2.7-1.2l-0.5-0.7c-0.6 0.7-1.3 1-2.2 1-1.5 0-2.6-1-2.7-2.6h5.8c0-0.2 0-0.3 0-0.4zm-3.3-3c1.3 0 2.3 1.1 2.4 2.6h-4.9c0.2-1.5 1.1-2.6 2.5-2.6zm7 0.7v-1.5h-0.9v7.7h0.9v-3.9c0-1.8 0.9-2.9 2.3-2.9 0.1 0 0.2 0 0.3 0v-1c-1.3 0-2.2 0.6-2.6 1.6zm5.6-3.2c0.4 0 0.7-0.3 0.7-0.7 0-0.4-0.3-0.7-0.7-0.7-0.4 0-0.7 0.3-0.7 0.7 0 0.4 0.3 0.7 0.7 0.7zm-0.5 9.4h0.9v-7.7h-0.9zm10.4-3.8c0-2.3-1.4-3.9-3.3-3.9-2 0-3.4 1.6-3.4 3.9 0 2.2 1.5 3.9 3.6 3.9 1.1 0 2.1-0.5 2.7-1.3l-0.6-0.6c-0.5 0.6-1.2 1-2.1 1-1.5 0-2.6-1.1-2.7-2.7h5.8c0-0.1 0-0.2 0-0.3zm-3.3-3c1.3 0 2.3 1 2.4 2.5h-4.9c0.1-1.5 1.1-2.5 2.5-2.5zm9.6-0.9c-1.2 0-2.1 0.5-2.6 1.5v-1.4h-0.9v7.6h0.9v-4c0-1.8 0.9-2.8 2.4-2.8 1.3 0 2.1 0.9 2.1 2.5v4.3h0.9v-4.4c0-2.2-1.1-3.3-2.8-3.3zm9.1 7.8c1.2 0 2.1-0.5 2.7-1.5l-0.7-0.6c-0.5 0.8-1.2 1.2-2 1.2-1.5 0-2.6-1.2-2.6-3 0-1.8 1.1-3 2.6-3 0.8 0 1.5 0.4 2 1.1l0.7-0.5c-0.6-1-1.5-1.5-2.7-1.5-2.1 0-3.6 1.6-3.6 3.9 0 2.3 1.5 3.9 3.6 3.9zm11.3-3.9c0-2.3-1.4-3.9-3.4-3.9-1.9 0-3.3 1.6-3.3 3.9 0 2.2 1.4 3.9 3.6 3.9 1.1 0 2-0.5 2.6-1.3l-0.5-0.6c-0.5 0.6-1.2 1-2.1 1-1.5 0-2.6-1.1-2.7-2.7h5.8c0-0.1 0-0.2 0-0.3zm-3.4-3c1.4 0 2.4 1 2.5 2.5h-4.9c0.1-1.5 1.1-2.5 2.4-2.5zm8 6.9c1.8 0 2.8-0.9 2.8-2.2 0-2.9-4.4-1.4-4.4-3.5 0-0.7 0.5-1.2 1.8-1.2 0.7 0 1.4 0.2 2 0.6l0.4-0.8c-0.6-0.4-1.5-0.7-2.4-0.7-1.8 0-2.8 0.9-2.8 2.2 0 3 4.5 1.4 4.5 3.4 0 0.8-0.5 1.3-1.8 1.3-1 0-1.9-0.4-2.5-0.9l-0.4 0.8c0.6 0.6 1.7 1 2.8 1zm5.5 0c0.4 0 0.7-0.4 0.7-0.8 0-0.5-0.3-0.8-0.7-0.8-0.4 0-0.7 0.3-0.7 0.8 0 0.4 0.3 0.8 0.7 0.8zm9.1 0c1.7 0 2.6-1.1 2.6-3.2v-7.1h-4.3v0.9h3.4v6.2c0 1.5-0.6 2.3-1.7 2.3-0.8 0-1.5-0.5-2-1.3l-0.6 0.7c0.6 1 1.5 1.5 2.6 1.5zm9 0c2 0 3.5-1.7 3.5-3.9 0-2.3-1.5-3.9-3.5-3.9-2 0-3.5 1.6-3.5 3.9 0 2.2 1.5 3.9 3.5 3.9zm0-0.9c-1.4 0-2.5-1.2-2.5-3 0-1.8 1.1-3 2.5-3 1.5 0 2.6 1.2 2.6 3 0 1.8-1.1 3-2.6 3zm6.8-8.5c0.4 0 0.7-0.4 0.7-0.8 0-0.4-0.3-0.7-0.7-0.7-0.4 0-0.7 0.3-0.7 0.7 0 0.4 0.3 0.8 0.7 0.8zm-0.5 9.3h0.9v-7.6h-0.9zm7.9-7.8c-1.2 0-2.1 0.6-2.6 1.5v-1.4h-0.9v7.7h0.9v-4.1c0-1.7 1-2.7 2.4-2.7 1.3 0 2.1 0.8 2.1 2.4v4.4h0.9v-4.5c0-2.2-1.1-3.3-2.8-3.3zm15.8 0.1v4c0 1.8-0.9 2.8-2.3 2.8-1.3 0-2.1-0.8-2.1-2.5v-4.3h-0.9v4.4c0 2.2 1.1 3.3 2.9 3.3 1.1 0 2-0.5 2.5-1.4v1.4h0.8v-7.7zm6.3 7.7c1.8 0 2.8-0.8 2.8-2.2 0-2.9-4.4-1.3-4.4-3.4 0-0.7 0.5-1.3 1.8-1.3 0.7 0 1.4 0.2 2 0.7l0.4-0.8c-0.6-0.5-1.5-0.8-2.4-0.8-1.8 0-2.8 1-2.8 2.2 0 3 4.5 1.5 4.5 3.5 0 0.7-0.5 1.2-1.8 1.2-1 0-1.9-0.4-2.5-0.8l-0.4 0.8c0.6 0.5 1.7 0.9 2.8 0.9zm10.2-9.4c0.4 0 0.7-0.3 0.7-0.7 0-0.4-0.3-0.7-0.7-0.7-0.4 0-0.7 0.3-0.7 0.7 0 0.4 0.3 0.7 0.7 0.7zm-0.5 9.4h1v-7.7h-1zm7.9-7.7c-1.2 0-2.1 0.5-2.6 1.5v-1.5h-0.9v7.7h1v-4c0-1.8 0.9-2.8 2.4-2.8 1.3 0 2 0.8 2 2.5v4.3h1v-4.4c0-2.2-1.2-3.3-2.9-3.3zm12.4 7.8c1.8 0 2.9-0.9 2.9-2.2 0-3-4.5-1.4-4.5-3.5 0-0.7 0.5-1.2 1.8-1.2 0.7 0 1.4 0.2 2 0.6l0.4-0.8c-0.6-0.4-1.5-0.7-2.4-0.7-1.8 0-2.7 0.9-2.7 2.2 0 3 4.4 1.4 4.4 3.4 0 0.8-0.5 1.3-1.8 1.3-1 0-1.9-0.4-2.5-0.9l-0.4 0.8c0.6 0.6 1.7 1 2.8 1zm9-7.8c-1.2 0-2.1 0.5-2.6 1.4v-4.5h-1v10.8h1v-4c0-1.8 0.9-2.8 2.4-2.8 1.3 0 2.1 0.8 2.1 2.5v4.3h0.9v-4.4c0-2.2-1.2-3.3-2.8-3.3zm8.6 0c-1.1 0-2.1 0.4-2.8 1l0.4 0.8c0.6-0.6 1.4-0.9 2.3-0.9 1.3 0 2 0.7 2 2v0.5h-2.2c-2 0-2.7 1-2.7 2.1 0 1.4 1 2.3 2.5 2.3 1.2 0 2-0.5 2.4-1.3v1.2h0.9v-4.7c0-2-1-3-2.8-3zm-0.3 7c-1.1 0-1.8-0.6-1.8-1.5 0-0.8 0.5-1.4 1.8-1.4h2.2v1.3c-0.4 1-1.2 1.6-2.2 1.6zm10-7c-1.1 0-2.1 0.5-2.6 1.6v-1.6h-0.9v10.5h0.9v-4.2c0.6 0.9 1.5 1.5 2.6 1.5 2 0 3.5-1.6 3.5-3.9 0-2.3-1.5-3.9-3.5-3.9zm0 6.9c-1.5 0-2.6-1.2-2.6-3 0-1.8 1.1-3 2.6-3 1.4 0 2.5 1.2 2.5 3 0 1.8-1.1 3-2.5 3zm6.7-8.5c0.4 0 0.7-0.4 0.7-0.8 0-0.4-0.3-0.7-0.7-0.7-0.4 0-0.7 0.3-0.7 0.7 0 0.4 0.3 0.8 0.7 0.8zm-0.5 9.3h1v-7.7h-1zm7.9-7.7c-1.2 0-2.1 0.6-2.6 1.5v-1.4h-0.9v7.6h1v-4c0-1.7 0.9-2.7 2.4-2.7 1.3 0 2 0.8 2 2.4v4.3h1v-4.4c0-2.2-1.2-3.3-2.9-3.3zm11.8 0.1v1.5c-0.6-1-1.6-1.6-2.7-1.6-2 0-3.5 1.5-3.5 3.7 0 2.2 1.5 3.8 3.5 3.8 1.1 0 2.1-0.6 2.6-1.5v0.9c0 1.9-0.8 2.8-2.5 2.8-1.1 0-2.1-0.4-2.7-1l-0.5 0.8c0.7 0.7 2 1.1 3.2 1.1 2.3 0 3.5-1.2 3.5-3.8v-6.7zm-2.7 6.4c-1.5 0-2.6-1.1-2.6-2.8 0-1.6 1.1-2.8 2.6-2.8 1.6 0 2.7 1.2 2.7 2.8 0 1.7-1.1 2.8-2.7 2.8zm-439.6 22.2c-0.3 0.3-0.7 0.4-1 0.4-0.8 0-1.2-0.5-1.2-1.4v-4.5h2.1v-0.9h-2.1v-1.7h-1v1.7h-1.2v0.9h1.2v4.6c0 1.4 0.8 2.2 2.1 2.2 0.5 0 1-0.2 1.4-0.5zm6.4-6.5c-1.2 0-2.1 0.5-2.6 1.4v-4.5h-0.9v10.8h0.9v-4c0-1.8 1-2.8 2.4-2.8 1.4 0 2.1 0.8 2.1 2.5v4.3h0.9v-4.4c0-2.2-1.1-3.3-2.8-3.3zm12.3 3.9c0-2.3-1.4-3.9-3.4-3.9-1.9 0-3.3 1.6-3.3 3.9 0 2.2 1.4 3.9 3.6 3.9 1.1 0 2-0.5 2.6-1.3l-0.5-0.7c-0.5 0.7-1.2 1-2.1 1-1.5 0-2.6-1-2.7-2.6h5.8c0-0.1 0-0.3 0-0.3zm-3.4-3c1.4 0 2.4 1 2.5 2.5h-4.9c0.1-1.5 1.1-2.5 2.4-2.5zm12.7-3.2c0.4 0 0.8 0.1 1.1 0.4l0.3-0.8c-0.4-0.3-0.9-0.5-1.4-0.5-1.4 0-2.1 0.9-2.1 2.3v0.9h-1.2v0.9h1.2v6.8h0.9v-6.8h2.1v-0.9h-2.1v-0.9c0-0.9 0.4-1.4 1.2-1.4zm8.3 2.3v4.1c0 1.7-0.9 2.7-2.3 2.7-1.3 0-2.1-0.8-2.1-2.4v-4.4h-0.9v4.5c0 2.2 1.2 3.3 2.9 3.3 1.1 0 2-0.6 2.5-1.5v1.4h0.9v-7.7zm7.7 6.5c-0.3 0.2-0.7 0.4-1 0.4-0.8 0-1.2-0.5-1.2-1.4v-4.6h2.1v-0.9h-2.1v-1.6h-1v1.6h-1.2v0.9h1.2v4.6c0 1.4 0.8 2.3 2.1 2.3 0.5 0 1-0.2 1.4-0.6zm8.2-6.4v4c0 1.7-0.9 2.8-2.4 2.8-1.3 0-2-0.9-2-2.5v-4.3h-1v4.4c0 2.2 1.2 3.3 2.9 3.3 1.1 0 2-0.5 2.5-1.5v1.4h0.9v-7.6zm5.3 1.5v-1.5h-0.9v7.6h0.9v-3.9c0-1.8 0.9-2.8 2.4-2.8 0 0 0.1 0 0.2 0v-1c-1.3 0-2.2 0.6-2.6 1.6zm11.1 2.3c0-2.3-1.4-3.9-3.4-3.9-1.9 0-3.3 1.6-3.3 3.9 0 2.3 1.4 3.9 3.6 3.9 1.1 0 2-0.4 2.6-1.2l-0.5-0.7c-0.5 0.7-1.2 1-2.1 1-1.5 0-2.6-1.1-2.7-2.7h5.8c0-0.1 0-0.2 0-0.3zm-3.4-3c1.4 0 2.4 1.1 2.5 2.6h-4.9c0.1-1.5 1.1-2.6 2.4-2.6zm13.3 6.9c2 0 3.5-1.6 3.5-3.9 0-2.3-1.5-3.9-3.5-3.9-2 0-3.5 1.6-3.5 3.9 0 2.3 1.5 3.9 3.5 3.9zm0-0.9c-1.5 0-2.6-1.2-2.6-3 0-1.8 1.1-3 2.6-3 1.4 0 2.5 1.2 2.5 3 0 1.8-1.1 3-2.5 3zm8.5-9.2c0.4 0 0.8 0.2 1 0.4l0.4-0.8c-0.4-0.3-0.9-0.4-1.4-0.4-1.4 0-2.1 0.9-2.1 2.2v1h-1.2v0.9h1.2v6.7h0.9v-6.7h2.1v-0.9h-2.1v-0.9c0-1 0.4-1.5 1.2-1.5zm13.4 6.2c0-2.3-1.4-3.9-3.4-3.9-1.9 0-3.3 1.6-3.3 3.9 0 2.3 1.4 3.9 3.6 3.9 1.1 0 2-0.4 2.6-1.2l-0.5-0.7c-0.5 0.7-1.3 1-2.1 1-1.5 0-2.6-1.1-2.7-2.7h5.8c0-0.1 0-0.2 0-0.3zm-3.4-3c1.4 0 2.4 1.1 2.5 2.6h-4.9c0.1-1.5 1.1-2.6 2.4-2.6zm11.5-4v4.6c-0.6-1-1.5-1.5-2.6-1.5-2 0-3.5 1.6-3.5 3.9 0 2.3 1.5 3.9 3.5 3.9 1.1 0 2.1-0.5 2.6-1.6v1.5h0.9v-10.8zm-2.5 10c-1.5 0-2.6-1.2-2.6-3 0-1.8 1.1-3 2.6-3 1.4 0 2.5 1.2 2.5 3 0 1.8-1.1 3-2.5 3zm12.2-6.8v4c0 1.7-0.9 2.8-2.3 2.8-1.4 0-2.1-0.9-2.1-2.5v-4.3h-0.9v4.4c0 2.2 1.1 3.3 2.9 3.3 1.1 0 2-0.5 2.4-1.5v1.4h0.9v-7.6zm7.3 7.7c1.2 0 2.1-0.5 2.7-1.5l-0.7-0.5c-0.5 0.7-1.2 1.1-2 1.1-1.5 0-2.6-1.2-2.6-3 0-1.8 1.1-3 2.6-3 0.8 0 1.5 0.4 2 1.2l0.7-0.6c-0.6-1-1.5-1.5-2.7-1.5-2.1 0-3.6 1.6-3.6 3.9 0 2.3 1.5 3.9 3.6 3.9zm7.8-7.8c-1.1 0-2.1 0.4-2.8 1.1l0.4 0.7c0.6-0.5 1.4-0.9 2.3-0.9 1.3 0 1.9 0.7 1.9 2v0.5h-2.1c-2 0-2.7 1-2.7 2.2 0 1.3 1 2.2 2.5 2.2 1.2 0 2-0.5 2.4-1.3v1.2h0.9v-4.7c0-2-1-3-2.8-3zm-0.3 7c-1.1 0-1.8-0.6-1.8-1.5 0-0.7 0.5-1.3 1.8-1.3h2.1v1.2c-0.3 1-1.1 1.6-2.1 1.6zm9.8-0.5c-0.3 0.3-0.7 0.4-1 0.4-0.8 0-1.2-0.5-1.2-1.4v-4.5h2.1v-0.9h-2.1v-1.7h-1v1.7h-1.2v0.9h1.2v4.6c0 1.4 0.8 2.2 2.1 2.2 0.5 0 1-0.2 1.4-0.5zm3.4-8.2c0.4 0 0.6-0.3 0.6-0.7 0-0.4-0.3-0.7-0.6-0.7-0.4 0-0.7 0.3-0.7 0.7 0 0.4 0.3 0.7 0.7 0.7zm-0.5 9.4h0.9v-7.7h-0.9zm7.2 0.1c2 0 3.5-1.6 3.5-3.9 0-2.3-1.5-3.9-3.5-3.9-2 0-3.5 1.6-3.5 3.9 0 2.3 1.5 3.9 3.5 3.9zm0-0.9c-1.5 0-2.6-1.2-2.6-3 0-1.8 1.1-3 2.6-3 1.5 0 2.6 1.2 2.6 3 0 1.8-1.1 3-2.6 3zm9.8-6.9c-1.2 0-2.1 0.5-2.6 1.5v-1.4h-0.9v7.6h0.9v-4c0-1.7 0.9-2.8 2.4-2.8 1.3 0 2.1 0.9 2.1 2.5v4.3h0.9v-4.4c0-2.2-1.1-3.3-2.8-3.3zm16.5 3.9c0-2.3-1.4-3.9-3.3-3.9-1.9 0-3.4 1.6-3.4 3.9 0 2.3 1.5 3.9 3.6 3.9 1.1 0 2.1-0.4 2.7-1.3l-0.5-0.6c-0.6 0.6-1.3 1-2.1 1-1.5 0-2.6-1.1-2.7-2.7h5.7c0-0.1 0-0.2 0-0.3zm-3.3-3c1.3 0 2.3 1 2.4 2.5h-4.8c0.1-1.5 1.1-2.5 2.4-2.5zm10.8-0.8l-2.6 6.5-2.5-6.5h-1l3 7.6h1l3.1-7.6zm8.9 3.8c0-2.3-1.4-3.9-3.4-3.9-1.9 0-3.3 1.6-3.3 3.9 0 2.3 1.4 3.9 3.6 3.9 1.1 0 2-0.4 2.6-1.3l-0.5-0.6c-0.5 0.6-1.3 1-2.1 1-1.5 0-2.6-1.1-2.7-2.7h5.8c0-0.1 0-0.2 0-0.3zm-3.4-3c1.4 0 2.4 1 2.5 2.5h-4.9c0.1-1.5 1.1-2.5 2.4-2.5zm9.7-0.9c-1.2 0-2.2 0.5-2.7 1.5v-1.4h-0.9v7.6h1v-4c0-1.7 0.9-2.8 2.4-2.8 1.3 0 2.1 0.9 2.1 2.5v4.3h0.9v-4.4c0-2.2-1.2-3.3-2.8-3.3zm9.5 6.5c-0.3 0.3-0.7 0.4-1 0.4-0.8 0-1.2-0.5-1.2-1.4v-4.6h2.1v-0.8h-2.1v-1.7h-1v1.7h-1.2v0.8h1.2v4.7c0 1.4 0.8 2.2 2.1 2.2 0.5 0 1-0.2 1.4-0.5zm4.7 1.2c1.8 0 2.9-0.8 2.9-2.1 0-3-4.5-1.4-4.5-3.5 0-0.7 0.6-1.3 1.8-1.3 0.7 0 1.4 0.2 2 0.7l0.5-0.8c-0.6-0.5-1.6-0.8-2.5-0.8-1.7 0-2.7 1-2.7 2.2 0 3.1 4.5 1.5 4.5 3.5 0 0.7-0.6 1.2-1.9 1.2-1 0-1.9-0.3-2.4-0.8l-0.5 0.8c0.6 0.5 1.7 0.9 2.8 0.9zm19-7.7l-2.1 6.5-2.2-6.5h-0.8l-2.3 6.5-2.1-6.5h-0.9l2.6 7.7h0.9l2.1-6.3 2.2 6.3h0.9l2.6-7.7zm3.6-1.7c0.4 0 0.7-0.3 0.7-0.7 0-0.4-0.3-0.7-0.7-0.7-0.4 0-0.7 0.3-0.7 0.7 0 0.4 0.3 0.7 0.7 0.7zm-0.5 9.4h0.9v-7.7h-0.9zm7.7-1.2c-0.3 0.3-0.6 0.4-1 0.4-0.8 0-1.2-0.5-1.2-1.4v-4.6h2.1v-0.8h-2.1v-1.7h-0.9v1.7h-1.3v0.8h1.3v4.7c0 1.4 0.7 2.2 2 2.2 0.5 0 1.1-0.2 1.4-0.6zm6.4-6.5c-1.1 0-2 0.5-2.5 1.4v-4.4h-1v10.7h1v-4c0-1.7 0.9-2.7 2.4-2.7 1.3 0 2 0.8 2 2.4v4.3h1v-4.4c0-2.2-1.2-3.3-2.9-3.3zm11-1.6c0.4 0 0.7-0.3 0.7-0.7 0-0.4-0.3-0.7-0.7-0.7-0.3 0-0.6 0.3-0.6 0.7 0 0.4 0.3 0.7 0.6 0.7zm-0.4 9.3h0.9v-7.6h-0.9zm7.9-7.7c-1.2 0-2.1 0.5-2.6 1.5v-1.5h-0.9v7.7h0.9v-4c0-1.8 0.9-2.8 2.4-2.8 1.3 0 2.1 0.8 2.1 2.5v4.3h0.9v-4.4c0-2.2-1.2-3.3-2.8-3.3zm9.7 0c-1.2 0-2.1 0.5-2.6 1.5v-1.5h-0.9v7.7h0.9v-4c0-1.8 1-2.8 2.4-2.8 1.4 0 2.1 0.8 2.1 2.5v4.3h0.9v-4.4c0-2.2-1.1-3.3-2.8-3.3zm9.1 7.8c2 0 3.5-1.7 3.5-3.9 0-2.3-1.5-3.9-3.5-3.9-2 0-3.5 1.6-3.5 3.9 0 2.2 1.5 3.9 3.5 3.9zm0-0.9c-1.5 0-2.6-1.2-2.6-3 0-1.8 1.1-3 2.6-3 1.4 0 2.5 1.2 2.5 3 0 1.8-1.1 3-2.5 3zm10.9-6.9l-2.6 6.6-2.6-6.6h-0.9l3 7.7h1l3-7.7zm5.3 0c-1 0-2.1 0.4-2.8 1l0.5 0.8c0.5-0.6 1.4-0.9 2.2-0.9 1.3 0 2 0.7 2 2v0.5h-2.2c-2 0-2.6 1-2.6 2.1 0 1.4 0.9 2.3 2.5 2.3 1.1 0 1.9-0.5 2.3-1.3v1.2h0.9v-4.7c0-2-1-3-2.8-3zm-0.3 7c-1.1 0-1.7-0.6-1.7-1.5 0-0.8 0.4-1.4 1.7-1.4h2.2v1.3c-0.4 1-1.1 1.6-2.2 1.6zm9.8-0.5c-0.2 0.3-0.6 0.4-1 0.4-0.8 0-1.2-0.5-1.2-1.4v-4.6h2.1v-0.9h-2.1v-1.6h-0.9v1.6h-1.2v0.9h1.2v4.6c0 1.5 0.7 2.3 2 2.3 0.5 0 1.1-0.2 1.5-0.6zm3.3-8.1c0.4 0 0.7-0.3 0.7-0.7 0-0.4-0.3-0.8-0.7-0.8-0.4 0-0.7 0.4-0.7 0.8 0 0.4 0.3 0.7 0.7 0.7zm-0.5 9.3h1v-7.6h-1zm7.3 0.1c2 0 3.5-1.7 3.5-3.9 0-2.3-1.5-3.9-3.5-3.9-2.1 0-3.6 1.6-3.6 3.9 0 2.2 1.5 3.9 3.6 3.9zm0-1c-1.5 0-2.6-1.2-2.6-2.9 0-1.8 1.1-3 2.6-3 1.4 0 2.5 1.2 2.5 3 0 1.7-1.1 2.9-2.5 2.9zm9.7-6.8c-1.2 0-2.1 0.5-2.6 1.4v-1.4h-0.9v7.7h1v-4c0-1.8 0.9-2.8 2.4-2.8 1.3 0 2 0.8 2 2.4v4.4h1v-4.5c0-2.1-1.2-3.2-2.9-3.2zm13 0c-1.1 0-2.1 0.4-2.8 1l0.4 0.8c0.6-0.6 1.4-0.9 2.3-0.9 1.3 0 1.9 0.7 1.9 2v0.5h-2.1c-2 0-2.7 1-2.7 2.1 0 1.4 0.9 2.3 2.5 2.3 1.1 0 2-0.5 2.4-1.3v1.2h0.9v-4.8c0-1.9-1-2.9-2.8-2.9zm-0.3 6.9c-1.1 0-1.8-0.5-1.8-1.4 0-0.8 0.4-1.4 1.8-1.4h2.1v1.3c-0.3 1-1.1 1.5-2.1 1.5zm10-6.9c-1.2 0-2.1 0.5-2.6 1.4v-1.4h-0.9v7.7h0.9v-4c0-1.8 0.9-2.8 2.4-2.8 1.3 0 2.1 0.8 2.1 2.4v4.4h0.9v-4.5c0-2.1-1.1-3.2-2.8-3.2zm11.6-3.1v4.6c-0.6-1-1.5-1.5-2.6-1.5-2 0-3.5 1.5-3.5 3.9 0 2.3 1.5 3.9 3.5 3.9 1.1 0 2.1-0.6 2.6-1.6v1.5h0.9v-10.8zm-2.5 9.9c-1.5 0-2.6-1.2-2.6-2.9 0-1.8 1.1-3 2.6-3 1.4 0 2.5 1.2 2.5 3 0 1.7-1.1 2.9-2.5 2.9zm17.2-2.9c0-2.3-1.4-3.9-3.3-3.9-1.9 0-3.4 1.6-3.4 3.9 0 2.2 1.5 3.9 3.6 3.9 1.1 0 2.1-0.5 2.7-1.3l-0.5-0.7c-0.6 0.7-1.3 1-2.1 1-1.5 0-2.6-1-2.7-2.6h5.7c0-0.1 0-0.3 0-0.3zm-3.3-3c1.3 0 2.3 1 2.4 2.5h-4.8c0.1-1.5 1.1-2.5 2.4-2.5zm11.4 6.8l-2.8-3.9 2.6-3.8h-1l-2.1 3-2.1-3h-1l2.6 3.8-2.7 3.9h1l2.2-3.2 2.2 3.2zm6-7.7c-1.2 0-2.1 0.5-2.7 1.5v-1.5h-0.9v10.5h0.9v-4.3c0.6 1 1.6 1.6 2.7 1.6 1.9 0 3.4-1.6 3.4-3.9 0-2.4-1.5-3.9-3.4-3.9zm-0.1 6.8c-1.5 0-2.6-1.2-2.6-2.9 0-1.8 1.1-3 2.6-3 1.4 0 2.6 1.2 2.6 3 0 1.7-1.2 2.9-2.6 2.9zm12.3-2.9c0-2.3-1.4-3.9-3.4-3.9-1.9 0-3.3 1.6-3.3 3.9 0 2.2 1.4 3.9 3.6 3.9 1.1 0 2-0.5 2.6-1.3l-0.5-0.7c-0.5 0.7-1.3 1-2.1 1-1.5 0-2.6-1-2.7-2.6h5.8c0-0.1 0-0.3 0-0.3zm-3.4-3c1.4 0 2.4 1 2.5 2.5h-4.9c0.1-1.5 1.1-2.5 2.4-2.5zm7 0.6v-1.5h-0.9v7.7h1v-3.9c0-1.8 0.9-2.8 2.3-2.8 0.1 0 0.1 0 0.2 0v-1c-1.3 0-2.1 0.5-2.6 1.5zm8.8 5c-0.3 0.2-0.7 0.4-1.1 0.4-0.7 0-1.1-0.5-1.1-1.4v-4.6h2v-0.9h-2v-1.6h-1v1.6h-1.2v0.9h1.2v4.6c0 1.4 0.7 2.3 2 2.3 0.6 0 1.1-0.2 1.5-0.6zm3.4-8.1c0.3 0 0.6-0.3 0.6-0.8 0-0.3-0.3-0.7-0.6-0.7-0.4 0-0.7 0.4-0.7 0.8 0 0.4 0.3 0.7 0.7 0.7zm-0.5 9.3h0.9v-7.6h-0.9zm6.2 0c1.8 0 2.9-0.8 2.9-2.1 0-3-4.5-1.4-4.5-3.5 0-0.7 0.5-1.3 1.8-1.3 0.7 0 1.4 0.2 2 0.7l0.4-0.8c-0.5-0.5-1.5-0.7-2.4-0.7-1.8 0-2.7 0.9-2.7 2.1 0 3.1 4.4 1.5 4.4 3.5 0 0.7-0.5 1.2-1.8 1.2-1 0-1.9-0.3-2.5-0.8l-0.4 0.8c0.6 0.5 1.7 0.9 2.8 0.9zm11.5-3.9c0-2.3-1.4-3.8-3.4-3.8-1.9 0-3.3 1.6-3.3 3.8 0 2.3 1.4 3.9 3.6 3.9 1.1 0 2-0.4 2.6-1.2l-0.5-0.7c-0.5 0.7-1.3 1-2.1 1-1.5 0-2.6-1-2.7-2.6h5.8c0-0.1 0-0.3 0-0.4zm-3.4-3c1.4 0 2.4 1.1 2.5 2.6h-4.9c0.1-1.5 1.1-2.6 2.4-2.6zm6.2 6.9c0.4 0 0.7-0.3 0.7-0.8 0-0.4-0.3-0.7-0.7-0.7-0.4 0-0.7 0.3-0.7 0.7 0 0.5 0.3 0.8 0.7 0.8z"/><g style="display:none"><path fill-rule="evenodd" class="G" d="m222.4 611.4c-4 0-7.4-3.4-7.4-7.4 0-4.1 3.4-7.4 7.4-7.4 4.1 0 7.4 3.3 7.4 7.4 0 4-3.3 7.4-7.4 7.4zm0-13.6c-3.3 0-6.1 2.8-6.1 6.2 0 3.3 2.8 6.1 6.1 6.1 3.4 0 6.2-2.8 6.2-6.1 0-3.4-2.8-6.2-6.2-6.2z"/><path class="G" d="m200.1 604c0 3.7-3 6.7-6.8 6.7-3.7 0-6.7-3-6.7-6.7 0-3.8 3-6.8 6.7-6.8 3.8 0 6.8 3 6.8 6.8z"/><path fill-rule="evenodd" class="G" d="m249.5 611.4c-4.1 0-7.4-3.4-7.4-7.4 0-4.1 3.3-7.4 7.4-7.4 4 0 7.3 3.3 7.3 7.4 0 4-3.3 7.4-7.3 7.4zm0-13.6c-3.4 0-6.2 2.8-6.2 6.2 0 3.3 2.8 6.1 6.2 6.1 3.3 0 6.1-2.8 6.1-6.1 0-3.4-2.8-6.2-6.1-6.2z"/></g><g style="display:none"><path class="G" d="m817.7 175.7v5.3h-7.1v-5.3h-1.8v12.3h1.8v-5.5h7.1v5.5h1.8v-12.3zm9.2 12.4c2.8 0 4.8-2 4.8-4.8 0-2.8-2-4.7-4.8-4.7-2.8 0-4.9 1.9-4.9 4.7 0 2.8 2.1 4.8 4.9 4.8zm0-1.5c-1.8 0-3.2-1.3-3.2-3.3 0-2 1.4-3.3 3.2-3.3 1.8 0 3.1 1.3 3.1 3.3 0 2-1.3 3.3-3.1 3.3zm18.9-8c-1.6 0-2.9 0.6-3.6 1.7-0.7-1.2-1.9-1.7-3.3-1.7-1.4 0-2.5 0.5-3.2 1.4v-1.3h-1.6v9.3h1.7v-4.8c0-2 1.1-3.1 2.8-3.1 1.5 0 2.4 0.9 2.4 2.7v5.2h1.7v-4.8c0-2 1.1-3.1 2.8-3.1 1.5 0 2.4 0.9 2.4 2.7v5.2h1.7v-5.4c0-2.7-1.6-4-3.8-4zm15.4 4.8c0-2.9-1.9-4.8-4.6-4.8-2.7 0-4.7 2-4.7 4.7 0 2.8 2 4.8 5 4.8 1.6 0 2.9-0.5 3.7-1.5l-0.9-1.1c-0.7 0.8-1.6 1.1-2.7 1.1-1.9 0-3.2-1.1-3.4-2.7h7.6c0-0.2 0-0.4 0-0.5zm-4.6-3.4c1.6 0 2.8 1.1 3 2.7h-6c0.2-1.6 1.4-2.7 3-2.7z"/></g></g></svg>